<?xml version="1.0" encoding="utf-8"?>
<!-- Generator: Adobe Illustrator 21.0.2, SVG Export Plug-In . SVG Version: 6.00 Build 0)  -->
<svg version="1.1" id="Layer_1" xmlns="http://www.w3.org/2000/svg" xmlns:xlink="http://www.w3.org/1999/xlink" x="0px" y="0px"
	 viewBox="0 0 295.2 295.2" style="enable-background:new 0 0 295.2 295.2;" xml:space="preserve">
<style type="text/css">
	.st0{fill:#fff;}
	.st1{fill:#fff;}
	.st2{fill:none;stroke:#fff;stroke-width:7;stroke-linecap:round;stroke-linejoin:round;stroke-miterlimit:10;}
</style>
<path class="st0" d="M260.6,69c-0.3-2.5-0.8-4.9-1.6-7.3c-1.1-3.5-2.8-6.9-4.9-10c5.3-6.7,7.1-15.7,4.4-23.9
	c-4.3-13.5-18.8-20.9-32.3-16.6c-10.9,3.5-18,13.6-17.8,24.8c-20.7,6.9-32.1,29.2-25.4,50.1c2.5,7.7,7.3,14.5,13.7,19.4
	c-7.3,7.9-10.5,19-8.4,29.6c-12.6,3.5-19.5,16.7-15.6,29c3.9,12,16.8,18.6,28.8,14.8c7.8-2.5,13.5-8.9,15.3-16.7
	c5.1,0.7,10.3,0.3,15.3-1.3c12.8-4.1,21.9-15.4,23.4-28.5c4.6,0.6,9.2,0.1,13.6-1.3c16.7-5.4,26-23.3,20.6-40.1
	C285.4,78.2,273.8,69.5,260.6,69z M266.5,123.5c-4.5,1.4-9.3,1.5-13.8,0.2c-1.2-0.4-2.6-0.1-3.6,0.7s-1.6,2-1.5,3.3
	c0.4,11.6-7,22.1-18,25.6c-4.9,1.6-10.2,1.7-15.2,0.2c-1.2-0.3-2.5-0.1-3.5,0.6c-1,0.7-1.6,1.9-1.6,3.2c-0.1,6.4-4.2,12-10.3,13.9
	c-7.8,2.5-16.2-1.8-18.7-9.6s1.8-16.2,9.6-18.7c1.1-0.4,2.3-0.6,3.6-0.7c1.2-0.1,2.4-0.7,3.1-1.8c0.7-1,0.9-2.3,0.5-3.5
	c-0.1-0.2-0.1-0.3-0.2-0.5c-3.3-10.3,0.2-21.7,8.7-28.4c1.1-0.8,1.6-2.1,1.5-3.4s-0.8-2.5-2-3.2c-6.9-4-12.1-10.3-14.5-17.8
	c-5.4-16.7,3.9-34.7,20.6-40.1c0.8-0.3,1.6-0.4,2.4-0.6c2-0.5,3.4-2.5,3-4.5c-1.4-8.6,3.7-16.8,12-19.5c9.3-3,19.2,2.1,22.2,11.4
	c2.1,6.4,0.2,13.6-4.7,18.2c-1.5,1.4-1.7,3.8-0.4,5.4c2.5,3.1,4.4,6.5,5.5,10.2c0.9,2.9,1.4,5.9,1.5,9c0,1.1,0.5,2.2,1.3,2.9
	c0.8,0.7,1.9,1.1,3,1c11.1-1,21.3,5.8,24.7,16.4C285.9,106.1,279,119.5,266.5,123.5z"/>
<path class="st1" d="M274.2,229.1"/>
<path class="st2" d="M-12.7,290.4l-1.2-4.6l0.9-0.2l1.2,4.6c0.9,3.6,4.6,5.7,8.3,4.8c3.7-0.9,6-4.6,5.1-8.2l-1.1-4.6l0.9-0.2
	l1.1,4.6c0.9,3.6,4.6,5.7,8.3,4.8c3.7-0.9,6-4.6,5.1-8.2l-1.1-4.6l1-0.3l1.1,4.6c0.9,3.6,4.6,5.7,8.4,4.8c3.7-0.9,6-4.6,5.1-8.2
	l-1.2-4.6l0.9-0.2l1.2,4.6c0.9,3.6,4.7,5.7,8.4,4.7c3.8-1,6.1-4.7,5.1-8.3l-1.2-4.5l0.9-0.2l1.2,4.5c0.5,1.8,1.7,3.2,3.3,4
	c0.8,0.4,1.6,0.7,2.7,0.7c1,0.1,2.1-0.1,3.1-0.4c4.1-1.3,6.4-5.3,5.1-8.8l-1.6-4.4c0.3-0.1,0.7-0.2,1-0.4l1.6,4.4
	c0.6,1.7,2,3,3.7,3.7c1.7,0.7,3.8,0.7,5.6-0.1c3.8-1.5,5.7-5.6,4.3-9l-1.8-4.3c0.3-0.1,0.6-0.2,0.9-0.4l1.8,4.3
	c1.4,3.4,5.7,4.9,9.4,3.2c3.7-1.7,5.4-5.8,3.7-9.1l-2-4.2l0.9-0.4l2,4.2c1.6,3.3,5.8,4.6,9.5,2.8c3.6-1.8,5.1-6,3.3-9.3l-2.2-4.2
	c0.3-0.2,0.6-0.3,0.9-0.5l2.2,4.1c1.7,3.3,6,4.4,9.6,2.4c1.8-1,3-2.5,3.5-4.2s0.4-3.6-0.6-5.2l-2.4-4.1c0.3-0.2,0.6-0.3,0.8-0.5
	l2.4,4.1c1.9,3.2,6.2,4.1,9.7,2c3.4-2.2,4.6-6.5,2.6-9.6l-2.5-4l0.8-0.5l2.6,3.9c1,1.6,2.6,2.5,4.4,2.8s3.7-0.1,5.4-1.3
	c1.7-1.1,2.8-2.8,3.2-4.5c0.4-1.8,0.1-3.6-1-5.1l-2.7-3.8c0.6-0.4,1.1-0.8,1.7-1.2l2.8,3.8c2.1,3,6.6,3.5,9.9,1
	c3.3-2.5,4-6.9,1.7-9.8l-2.9-3.7l0.8-0.6l3,3.7c2.3,2.9,6.8,3.1,10,0.4c0.8-0.7,1.4-1.4,1.9-2.3c0.5-0.8,0.7-1.8,0.8-2.7
	c0.2-1.8-0.3-3.6-1.6-5l-3.2-3.5c0.2-0.2,0.5-0.4,0.7-0.7l3.2,3.5c1.3,1.4,3,2,4.8,2c0.9,0,1.9-0.2,2.8-0.6c0.9-0.4,1.7-1,2.5-1.7
	c3-3,3.2-7.6,0.5-10.1l-19.7-18.4c-2.7-2.5-6.8-2.6-9.2-0.2c-0.6,0.6-1,1.3-1.3,2.1s-0.5,1.6-0.5,2.4c0,1.7,0.6,3.4,1.9,4.7l3.2,3.5
	c-0.2,0.2-0.4,0.4-0.7,0.6l-3.2-3.5c-1.2-1.4-2.9-2.1-4.6-2.2c-0.8-0.1-1.6,0-2.4,0.3c-0.8,0.2-1.6,0.6-2.2,1.2
	c-2.7,2.2-2.9,6.4-0.6,9.3l3,3.7l-0.7,0.6l-2.9-3.7c-2.3-2.9-6.5-3.5-9.2-1.3c-2.8,2.1-3.4,6.2-1.3,9.2l2.8,3.8
	c-0.5,0.4-1.1,0.8-1.6,1.2l-2.7-3.8c-1.1-1.5-2.6-2.4-4.3-2.7c-1.7-0.3-3.4,0-4.9,1s-2.4,2.5-2.7,4.2c-0.3,1.7,0,3.5,1,5l2.6,3.9
	l-0.8,0.5l-2.5-4c-2-3.1-6.1-4.1-9.1-2.1c-3.1,1.8-4.1,5.9-2.2,9.1l2.4,4.1c-0.3,0.2-0.5,0.3-0.8,0.5l-2.4-4.1
	c-0.9-1.6-2.4-2.7-4-3.1c-1.6-0.5-3.4-0.3-5,0.6c-3.1,1.8-4.3,5.8-2.6,9l2.2,4.1c-0.3,0.2-0.6,0.3-0.9,0.5l-2.2-4.2
	c-1.8-3.3-5.7-4.5-8.9-2.9c-3.2,1.6-4.5,5.6-2.9,8.9l2,4.2l-0.8,0.4l-2-4.2c-1.6-3.3-5.5-4.8-8.8-3.3c-3.3,1.5-4.7,5.3-3.3,8.8
	l1.8,4.3c-0.3,0.1-0.6,0.2-0.8,0.4l-1.8-4.3c-1.5-3.4-5.3-5.1-8.5-3.7c-1.6,0.7-2.8,1.9-3.5,3.4s-0.8,3.4-0.1,5.1l1.6,4.4
	c-0.3,0.1-0.6,0.2-0.9,0.3l-1.6-4.4c-1.3-3.5-4.9-5.4-8-4.4c-0.8,0.2-1.5,0.6-2,1.2c-0.6,0.5-1.2,1.2-1.6,1.9
	c-0.8,1.5-1.1,3.3-0.6,5.1l1.2,4.5l-0.9,0.2l-1.2-4.5c-1-3.6-4.6-5.7-8.3-4.8c-3.6,0.9-5.9,4.6-5,8.2l1.2,4.6l-0.9,0.2l-1.2-4.6
	c-0.9-3.6-4.6-5.7-8.3-4.8c-3.7,0.9-5.9,4.6-5,8.2l1.1,4.6l-1,0.3l-1.1-4.6c-0.9-3.6-4.6-5.7-8.3-4.8c-3.7,0.9-6,4.6-5.1,8.2
	l1.1,4.6l-0.9,0.2l-1.1-4.6c-0.9-3.6-4.6-5.7-8.4-4.8c-3.7,0.9-6,4.6-5.1,8.2l1.2,4.6l-0.9,0.2l-1.2-4.6"/>
</svg>
