<?xml version="1.0" encoding="utf-8"?>
<!-- Generator: Adobe Illustrator 21.0.2, SVG Export Plug-In . SVG Version: 6.00 Build 0)  -->
<svg version="1.1" id="Layer_1" xmlns="http://www.w3.org/2000/svg" xmlns:xlink="http://www.w3.org/1999/xlink" x="0px" y="0px"
	 viewBox="-22 -20 300 250" style="enable-background:new 0 0 257.6 193.9;" xml:space="preserve">
<style type="text/css">
	.st0{fill:#B6B6B6;}
	.st1{fill:#5B8AB8;}
</style>
<g>
	<g>
		<path class="st0" d="M217.8,193.9c-1.1,0-2.2,0-3.3,0c-1.1,0-2.3,0-3.4,0H12.4c-8,0-12.2-6.3-12.2-12.5c0-6.2,4.2-12.5,12.2-12.5
			h209.9c4.1,0,6.7-0.1,8.6-2.4c1.8-2.1,2.2-4.7,1.1-7.1c-1.2-2.7-3.9-4.4-6.9-4.5c-6.8-0.2-13.7-0.1-20.4-0.1
			c-3.4,0-6.9,0.1-10.3,0.1H34.3c-10,0-18.2-3-24.5-8.8c-6.5-6.1-10.1-15-9.9-24.5c0.2-9.4,4.2-18,11-23.7
			c9.8-8.3,21.6-8.1,32.9-7.9c1.7,0,3.3,0.1,5,0.1h167c1.1,0,2.1,0,3.2,0c2,0,4.1,0,6.2,0c2.9-0.1,5.5-1.8,6.8-4.5
			c1.4-2.8,1.1-5.9-0.7-8.3c-2.9-3.9-11.5-3.4-17.8-3.1c-1.8,0.1-3.4,0.2-4.9,0.2H12.4c-8,0-12.2-6.3-12.2-12.5
			c0-6.2,4.2-12.5,12.2-12.5H126c10.8,0,21.7,0,32.5,0c21.3,0,43.4,0,65.1,0c10.6,0,19.5,3.7,25.6,10.5c6.2,6.8,9.1,16.2,8.2,25.7
			c-0.9,9.4-5.6,17.8-12.9,23.2c-9.3,6.9-21.1,6.7-31.5,6.4c-2,0-3.8-0.1-5.6-0.1H39.3c-0.8,0-1.7,0-2.5,0c-1.6,0-3.1-0.1-4.6,0
			c-4.4,0.2-6.7,3.7-7.1,6.9c-0.3,2.9,0.8,6.4,4.9,7.7c1.6,0.5,3.7,0.4,5.8,0.3c0.8,0,1.6-0.1,2.3-0.1h183.5
			c6.2,0,12.9,0.5,19.3,3.9c8.2,4.3,13.9,12.1,15.9,21.4c2,9.5-0.3,19.3-6.2,26.7C241.6,193,229.2,193.9,217.8,193.9z M12.4,175.9
			c-5,0-5.2,4.9-5.2,5.5c0,0.6,0.1,5.5,5.2,5.5h198.6c1.1,0,2.3,0,3.4,0c11.8,0.1,22.9,0.2,30.5-9.4c4.6-5.8,6.4-13.5,4.8-20.9
			c-1.5-7.2-6-13.3-12.3-16.7c-4.8-2.5-9.9-3.1-16-3.1H38.1c-0.7,0-1.3,0-2.1,0c-2.5,0.1-5.4,0.2-8.1-0.6c-6.7-2-10.7-8.2-9.8-15.2
			c0.9-7.3,6.5-12.7,13.7-13.1c1.7-0.1,3.5-0.1,5.1,0c0.8,0,1.6,0,2.4,0h168.2c1.9,0,3.9,0,5.8,0.1c9.7,0.2,19.8,0.5,27.2-5
			c5.7-4.2,9.3-10.9,10.1-18.3c0.8-7.5-1.6-14.9-6.4-20.3c-6-6.7-14.4-8.1-20.4-8.2c-21.7-0.1-43.7,0-65.1,0c-10.8,0-21.7,0-32.6,0
			H12.4c-5,0-5.2,4.9-5.2,5.5c0,0.6,0.1,5.5,5.2,5.5h196.1c1.3,0,2.9-0.1,4.5-0.2c7.9-0.4,18.7-1,23.8,5.9
			c3.3,4.5,3.9,10.5,1.4,15.6c-2.5,5.1-7.4,8.3-12.9,8.4c-2.2,0.1-4.3,0-6.4,0c-1,0-2.1,0-3.1,0h-167c-1.7,0-3.4,0-5.1-0.1
			c-10.5-0.2-20.5-0.4-28.3,6.3c-5.2,4.4-8.3,11.2-8.5,18.5c-0.2,7.4,2.6,14.4,7.7,19.2c5,4.7,11.4,7,19.7,7h160.1
			c3.4,0,6.8,0,10.2-0.1c6.8-0.1,13.8-0.1,20.7,0.1c5.7,0.1,10.8,3.5,13.1,8.7c2.2,4.9,1.4,10.3-2.1,14.5c-4.1,4.9-9.8,4.9-14,4.9
			H12.4z"/>
	</g>
</g>
<g>
	<path class="st1" d="M108.3,11.7c1,1.3,2.3,3.2,2.3,6.6s-1.3,5.2-2.3,6.6c-0.4,0.5-0.7,0.9-0.9,1.4c-0.5,1-1.4,1.5-2.4,1.5
		c-0.4,0-0.7-0.1-1.1-0.2c-1.3-0.6-1.9-2.2-1.3-3.5c0.4-0.9,0.9-1.6,1.3-2.2c0.8-1.1,1.3-1.8,1.3-3.5c0-1.7-0.5-2.4-1.3-3.5
		c-1-1.3-2.3-3.2-2.3-6.6s1.3-5.2,2.3-6.6c0.1-0.2,0.2-0.3,0.4-0.5c0.8-1.2,2.5-1.6,3.7-0.7c1.2,0.8,1.6,2.5,0.7,3.7
		c-0.1,0.2-0.3,0.4-0.4,0.6c-0.8,1.1-1.3,1.8-1.3,3.5C107,9.9,107.5,10.6,108.3,11.7z"/>
	<path class="st1" d="M73.5,11.7c1,1.3,2.3,3.2,2.3,6.6s-1.3,5.2-2.3,6.6c-0.4,0.5-0.7,0.9-0.9,1.4c-0.5,1-1.4,1.5-2.4,1.5
		c-0.4,0-0.7-0.1-1.1-0.2c-1.3-0.6-1.9-2.2-1.3-3.5c0.4-0.9,0.9-1.6,1.3-2.2c0.8-1.1,1.3-1.8,1.3-3.5c0-1.7-0.5-2.4-1.3-3.5
		c-1-1.3-2.3-3.2-2.3-6.6s1.3-5.2,2.3-6.6c0.1-0.2,0.2-0.3,0.4-0.5c0.8-1.2,2.5-1.6,3.7-0.7c1.2,0.8,1.6,2.5,0.7,3.7
		c-0.1,0.2-0.3,0.4-0.4,0.6c-0.8,1.1-1.3,1.8-1.3,3.5C72.2,9.9,72.7,10.6,73.5,11.7z"/>
	<path class="st1" d="M38.7,11.7c1,1.3,2.3,3.2,2.3,6.6s-1.3,5.2-2.3,6.6c-0.4,0.5-0.7,0.9-0.9,1.4c-0.5,1-1.4,1.5-2.4,1.5
		c-0.4,0-0.7-0.1-1.1-0.2C32.9,27,32.3,25.4,33,24c0.4-0.9,0.9-1.6,1.3-2.2c0.8-1.1,1.3-1.8,1.3-3.5c0-1.7-0.5-2.4-1.3-3.5
		c-1-1.3-2.3-3.2-2.3-6.6s1.3-5.2,2.3-6.6c0.1-0.2,0.2-0.3,0.4-0.5c0.8-1.2,2.5-1.6,3.7-0.7c1.2,0.8,1.6,2.5,0.7,3.7
		c-0.1,0.2-0.3,0.4-0.4,0.6c-0.8,1.1-1.3,1.8-1.3,3.5C37.4,9.9,37.9,10.6,38.7,11.7z"/>
	<path class="st1" d="M213.3,11.7c1,1.3,2.3,3.2,2.3,6.6s-1.3,5.2-2.3,6.6c-0.4,0.5-0.7,0.9-0.9,1.4c-0.5,1-1.4,1.5-2.4,1.5
		c-0.4,0-0.7-0.1-1.1-0.2c-1.3-0.6-1.9-2.2-1.3-3.5c0.4-0.9,0.9-1.6,1.3-2.2c0.8-1.1,1.3-1.8,1.3-3.5c0-1.7-0.5-2.4-1.3-3.5
		c-1-1.3-2.3-3.2-2.3-6.6s1.3-5.2,2.3-6.6c0.1-0.2,0.2-0.3,0.4-0.5c0.8-1.2,2.5-1.6,3.7-0.7c1.2,0.8,1.6,2.5,0.7,3.7
		c-0.1,0.2-0.3,0.4-0.4,0.6c-0.8,1.1-1.3,1.8-1.3,3.5C212,9.9,212.5,10.6,213.3,11.7z"/>
	<path class="st1" d="M178.5,11.7c1,1.3,2.3,3.2,2.3,6.6s-1.3,5.2-2.3,6.6c-0.4,0.5-0.7,0.9-0.9,1.4c-0.5,1-1.4,1.5-2.4,1.5
		c-0.4,0-0.7-0.1-1.1-0.2c-1.3-0.6-1.9-2.2-1.3-3.5c0.4-0.9,0.9-1.6,1.3-2.2c0.8-1.1,1.3-1.8,1.3-3.5c0-1.7-0.5-2.4-1.3-3.5
		c-1-1.3-2.3-3.2-2.3-6.6s1.3-5.2,2.3-6.6c0.1-0.2,0.2-0.3,0.4-0.5c0.8-1.2,2.5-1.6,3.7-0.7c1.2,0.8,1.6,2.5,0.7,3.7
		c-0.1,0.2-0.3,0.4-0.4,0.6c-0.8,1.1-1.3,1.8-1.3,3.5C177.2,9.9,177.7,10.6,178.5,11.7z"/>
	<path class="st1" d="M143.7,11.7c1,1.3,2.3,3.2,2.3,6.6s-1.3,5.2-2.3,6.6c-0.4,0.5-0.7,0.9-0.9,1.4c-0.5,1-1.4,1.5-2.4,1.5
		c-0.4,0-0.7-0.1-1.1-0.2c-1.3-0.6-1.9-2.2-1.3-3.5c0.4-0.9,0.9-1.6,1.3-2.2c0.8-1.1,1.3-1.8,1.3-3.5c0-1.7-0.5-2.4-1.3-3.5
		c-1-1.3-2.3-3.2-2.3-6.6s1.3-5.2,2.3-6.6c0.1-0.2,0.2-0.3,0.4-0.5c0.8-1.2,2.5-1.6,3.7-0.7c1.2,0.8,1.6,2.5,0.7,3.7
		c-0.1,0.2-0.3,0.4-0.4,0.6c-0.8,1.1-1.3,1.8-1.3,3.5C142.4,9.9,142.9,10.6,143.7,11.7z"/>
</g>
</svg>
