<?xml version="1.0" encoding="utf-8"?>
<!-- Generator: Adobe Illustrator 21.0.2, SVG Export Plug-In . SVG Version: 6.00 Build 0)  -->
<svg version="1.1" id="Layer_1" xmlns="http://www.w3.org/2000/svg" xmlns:xlink="http://www.w3.org/1999/xlink" x="0px" y="0px"
	 viewBox="110 100 400 400" style="enable-background:new 0 0 600 600;" xml:space="preserve">
<style type="text/css">
	.st0{fill:#B6B6B6;}
	.st1{fill:#5B8AB8;}
</style>
<path class="st0" d="M404.1,293.4c-0.1-0.3-0.2-0.7-0.2-1.1l0,0v-58.4c0-0.4,0.1-0.7,0.2-1.1c0-0.6-0.2-1.1-0.6-1.5
	s-0.9-0.6-1.5-0.6l0,0c-0.6,0-1.1,0.2-1.5,0.6c-0.4,0.4-0.6,0.9-0.6,1.5v60.5c0,0.6,0.2,1.1,0.6,1.5s0.9,0.6,1.5,0.6l0,0
	c0.6,0,1.1-0.2,1.5-0.6C403.8,294.5,404.1,294,404.1,293.4L404.1,293.4z M457.2,285.1v-43.6l-1.1-0.8l-1.1,0.8V285l1.2,0.7
	L457.2,285.1z M448.6,285.1v-43.6l-1.1-0.8l-1.1,0.8V285l1.2,0.7L448.6,285.1z M440.1,285.1v-43.6l-1.1-0.8l-1.1,0.8V285l1.2,0.7
	L440.1,285.1z M431.6,285.1v-43.6l-1.1-0.8l-1.1,0.8V285l1.2,0.7L431.6,285.1z M423.1,245.9v-5.4l-2.3-4h-11.7v9.4H423.1z
	 M423.1,275.3v-24.4h-14v24.4H423.1z M423.1,286.2v-5.8h-14v9.4h11.8L423.1,286.2z M236.5,288.7c-49.8,20.1-50.5,90.7-1.1,111.7
	c14.6,6.2,31.5,6.4,46.2,0.4c49.8-20.1,50.5-90.7,1.1-111.7C268.6,283.1,250.7,283,236.5,288.7z M411.7,456.8v-60.5
	c0-0.6-0.2-1.1-0.6-1.5s-0.9-0.6-1.5-0.6l0,0c-0.6,0-1.1,0.2-1.5,0.6s-0.6,0.9-0.6,1.5v60.5c0,0.6,0.2,1.1,0.6,1.5s0.9,0.6,1.5,0.6
	l0,0c0.6,0,1.1-0.2,1.5-0.6C411.4,457.9,411.7,457.3,411.7,456.8z M248.5,441c0.1,0,0.2,0,0.3,0h0.1h0.1h0.1h0.1h0.1h0.1h0.1h0.4
	h0.1h0.1h0.1h0.1c0.5,0,1,0.1,1.4,0.1h0.1h0.1h0.1h0.1h0.1h0.1h0.1h0.1h0.1h0.1h0.1h0.1h0.1c0.2,0,0.4,0,0.6,0l1,0.1l0,0h0.1h0.1
	h0.1h0.1h0.8h0.1h0.1h0.1h0.7h0.1l0,0c0.3,0,0.6,0,1,0h0.3l0,0c0.3,0,0.6,0,0.9,0c0.8,0,1.7,0,2.5,0c0.1,0,0.2,0,0.3,0h0.5
	c1.4,0,2.7-0.1,4-0.2h0.5h0.1c0.6,0,1.1-0.1,1.7-0.1l0,0l0.5-0.1c0.4,0,0.8-0.1,1.1-0.1h0.1l0.4-0.1c9-1,17.6-3.3,25.7-6.6
	c0.5-0.2,1-0.4,1.5-0.6c11.1-4.8,21.1-11.5,29.5-19.8c1.2-1.2,2.4-2.4,3.6-3.7c1.2-1.3,2.3-2.6,3.4-3.9c0.1-0.2,0.3-0.3,0.4-0.4
	c27.4-33.8,30-84.3,0.8-121.2H289c51.9,25.2,49.3,100.4-4.2,122c-16.3,6.6-34.9,6.4-51.1-0.5c-54.6-23.2-53.8-101.2,1.2-123.4
	c16.9-6.8,40.4-4.5,58.6-4.5h102v-30H301c-25.7,0-53.1-3.2-77.3,6.6c-36.3,14.6-60.3,49.7-60.6,88.9
	C161.8,394.3,199.9,435.7,248.5,441z M337.8,411.5c-8.7,10.2-19.5,19-32.3,25.4c-0.7,0.3-1.4,0.7-2,1l-0.2,0.1
	c-1.4,0.7-2.8,1.3-4.3,1.9c-1.4,0.6-2.8,1.1-4.1,1.6h107.5v-30H337.8z M458.9,446.7h-33.6v7.4l2.8,4.7h28l2.8-4.7L458.9,446.7
	L458.9,446.7z M458.9,411.5h-33.6v30.1h33.6V411.5z M425.3,406.4h33.6v-6.9l-3-5.2h-27.7l-3,5.2v6.9H425.3z M464,398.8v55.9
	c0,0.5-0.2,1-0.4,1.4l-3.8,6.4c-0.5,0.8-1.3,1.2-2.2,1.2l0,0h-30.9c-1,0-1.8-0.6-2.3-1.4l-3.2-5.3c-0.1,0.1-0.3,0.1-0.4,0.1h-4.1
	c-0.1,1.8-0.9,3.4-2.1,4.6c-1.3,1.3-3.1,2.1-5.1,2.1l0,0c-2,0-3.8-0.8-5.1-2.1c-1.3-1.3-2.1-3.1-2.1-5.1v-8.9H261
	c-0.1,0-0.1,0-0.2,0c-0.9,0-1.8,0-2.7,0c-0.2,0-0.5,0-0.7,0h-0.1l0,0h-4.5c-0.9,0-1.8-0.1-2.6-0.2s-1.6-0.3-2.4-0.5
	c-51.8-5.7-92.3-49.7-91.8-103.5c0.4-41.7,25.9-79.1,64.6-94.7c25-10.1,53.1-7.1,79.6-7.1h94.5v-9.1c0-2,0.8-3.8,2.1-5.1
	c1.3-1.3,3.1-2.1,5.1-2.1l0,0c2,0,3.8,0.8,5.1,2.1c1,1,1.7,2.2,2,3.6h13.3c0.9,0,1.8,0.5,2.2,1.3l0,0l1.8,3.2l2.4-1.7
	c1.2-0.8,2.7-0.8,3.8,0.1l2.3,1.7l2.4-1.7c1.1-0.8,2.6-0.8,3.7,0l0,0l2.4,1.7l2.4-1.7c1.2-0.8,2.7-0.8,3.8,0.1l2.3,1.7l2.5-1.7
	c1.1-0.8,2.6-0.8,3.7,0l0,0l4.2,3.1c0.9,0.6,1.3,1.6,1.3,2.6l0,0v46.9c0,1.2-0.7,2.2-1.6,2.8L458,292c-1,0.7-2.3,0.6-3.3,0.1l0,0
	l-2.8-1.6l-2.5,1.6c-1,0.7-2.3,0.6-3.3,0.1l0,0l-2.8-1.6l-2.5,1.6c-1,0.7-2.3,0.6-3.3,0.1l0,0l-2.8-1.6l-2.5,1.6
	c-1,0.7-2.3,0.6-3.3,0.1l0,0l-2.7-1.6l-1.8,3c-0.5,0.8-1.4,1.3-2.3,1.2h-13.3c-0.3,1.4-1,2.6-2,3.6c-1.3,1.3-3.1,2.1-5.1,2.1l0,0
	c-2,0-3.8-0.8-5.1-2.1c-1.3-1.3-2.1-3.1-2.1-5.1v-8.7H343c26.8,37.4,24.6,85.9-0.2,120.5h59.6v-8.9c0-2,0.8-3.8,2.1-5.1
	c1.3-1.3,3.1-2.1,5.1-2.1l0,0c2,0,3.8,0.8,5.1,2.1c1.2,1.2,2,2.8,2.1,4.6h4.1c0.2,0,0.4,0.1,0.6,0.2l3.1-5.5
	c0.5-0.8,1.3-1.3,2.2-1.3l0,0h30.6c1,0,1.9,0.6,2.3,1.5l3.9,6.9C463.9,397.9,464,398.4,464,398.8L464,398.8z"/>
<path class="st1" d="M347.7,170.5c-4.2-6-6.2-10.5-6.8-18c-0.4-5.6,1.9-12.1,1.9-12.1c-2.9,1.9-2.9,1.8-4.8,3.3
	c-10,8.3-12.6,16.6-12.9,17.7c0,0.1,0,0.2,0,0.2v-0.2c0,0,7.8-30.7-14-44.9c-1.8-1.2-6-3.5-6-3.5s10.8,26.5-8.5,42.3
	c-3.8-15.6-24-15.8-24-15.8s1.5,5.5,1.8,6.7c3.2,16.9-6.8,22.3-8.8,38.3c0.2-1.8,0.2-1.1,0,0l0,0l0,0l0,0
	c-1.6,12.5,4.4,22.3,13.6,28.8c0.5-4.5,2.2-8.8,4.8-12.5c2.8-4.2,4.3-7.3,4.7-12.5c0.3-3.8-1.3-8.4-1.3-8.4c2,1.3,2.1,1.2,3.4,2.3
	c5.6,4.7,7.9,9.3,8.6,11.3c0,0,0.1,0,0.1-0.1c-0.9-4.3-3.7-21.2,9.9-30.2c1.2-0.8,4.2-2.5,4.2-2.5s-7.7,16.8,9.2,30.5
	c-0.4-5.6,1.8-10.8,5.8-14.7c2.2-2.2,6.1-3.2,6.1-3.2s-1.1,3.8-1.2,4.6c-2.2,11.7,7.5,20.8,5.5,31.9c-0.4,2.1-0.9,4.1-1.8,6h0.9
	c5-2.7,9.6-6.2,12.8-10.8C357.9,194.5,354.6,180.7,347.7,170.5L347.7,170.5z"/>
</svg>
