<svg xmlns="http://www.w3.org/2000/svg" viewBox="0 0 426.4 419.82"><defs><style>.cls-1{fill:#fff;}.cls-2{fill:#fff;}</style></defs><title>heating</title><g id="Layer_2" data-name="Layer 2"><g id="Capa_1" data-name="Capa 1"><path class="cls-1" d="M300.8,33.12c2.7,3.8,6.4,9.1,6.4,18.6s-3.7,14.7-6.4,18.6a25.29,25.29,0,0,0-2.5,3.9,7.57,7.57,0,0,1-6.8,4.3,7.49,7.49,0,0,1-6.8-10.7,35,35,0,0,1,3.8-6.2c2.3-3.2,3.6-5.2,3.6-9.9s-1.4-6.7-3.6-9.9c-2.7-3.8-6.4-9.1-6.4-18.6s3.7-14.7,6.4-18.5c.3-.5.7-.9,1-1.4a7.49,7.49,0,1,1,12.4,8.4,16.29,16.29,0,0,0-1.1,1.7c-2.3,3.2-3.6,5.2-3.6,9.9S298.5,29.92,300.8,33.12Z"/><path class="cls-1" d="M202.6,33.12c2.7,3.8,6.4,9.1,6.4,18.6s-3.7,14.7-6.4,18.6a25.29,25.29,0,0,0-2.5,3.9,7.57,7.57,0,0,1-6.8,4.3,7.49,7.49,0,0,1-6.8-10.7,42,42,0,0,1,3.8-6.2c2.3-3.2,3.6-5.2,3.6-9.9s-1.4-6.7-3.6-9.9c-2.7-3.8-6.4-9.1-6.4-18.6s3.7-14.7,6.4-18.5c.3-.5.7-.9,1-1.4a7.49,7.49,0,1,1,12.4,8.4,16.29,16.29,0,0,0-1.1,1.7c-2.3,3.2-3.6,5.2-3.6,9.9S200.4,29.92,202.6,33.12Z"/><path class="cls-1" d="M104.5,33.12c2.7,3.8,6.4,9.1,6.4,18.6s-3.7,14.7-6.4,18.6a25.29,25.29,0,0,0-2.5,3.9,7.57,7.57,0,0,1-6.8,4.3,7.49,7.49,0,0,1-6.8-10.7,42,42,0,0,1,3.8-6.2c2.3-3.2,3.6-5.2,3.6-9.9s-1.4-6.7-3.6-9.9c-2.7-3.8-6.4-9.1-6.4-18.6s3.7-14.7,6.4-18.5c.3-.5.7-.9,1-1.4a7.49,7.49,0,1,1,12.4,8.4,16.29,16.29,0,0,0-1.1,1.7c-2.3,3.2-3.6,5.2-3.6,9.9S102.2,29.92,104.5,33.12Z"/><path class="cls-2" d="M383,157.82v-20.2H362.8v-26.9H322.5v26.9H309.1v-6.7a20.2,20.2,0,0,0-40.4,0v6.7H255.3v-6.7a20.2,20.2,0,0,0-40.4,0v6.7H201.5v-6.7a20.2,20.2,0,0,0-40.4,0v6.7H147.7v-6.7a20.2,20.2,0,0,0-40.4,0v6.7H93.9v-6.7a20.2,20.2,0,0,0-40.4,0v6.7H40.3v-26.9H0v309.1H40.3v-26.9H53.7v6.7a20.2,20.2,0,1,0,40.4,0v-6.7h13.4v6.7a20.2,20.2,0,1,0,40.4,0v-6.7h13.4v6.7a20.2,20.2,0,1,0,40.4,0v-6.7h13.4v6.7a20.2,20.2,0,0,0,40.4,0v-6.7h13.4v6.7a20.2,20.2,0,0,0,40.4,0v-6.7h13.2v26.9h40.3v-6.7H383v-20.2h13.4a6.7,6.7,0,0,0,0-13.4H383v-20.2H362.8v-168H383v-33.5ZM26.9,406.42H13.4V124.22H26.8v282.2Zm13.4-26.9V151.12H53.7v228.5H40.3Zm40.3,20.2a6.7,6.7,0,1,1-13.4,0V130.92a6.7,6.7,0,0,1,13.4,0v268.8Zm13.5-20.2V151.12h13.4v228.5H94.1Zm40.3,20.2a6.7,6.7,0,1,1-13.4,0V130.92a6.7,6.7,0,0,1,13.4,0v268.8Zm13.4-20.2V151.12h13.4v228.5H147.8Zm40.3,20.2a6.7,6.7,0,1,1-13.4,0V130.92a6.7,6.7,0,0,1,13.4,0v268.8Zm13.5-20.2V151.12H215v228.5H201.6Zm40.3,20.2a6.7,6.7,0,0,1-13.4,0V130.92a6.7,6.7,0,0,1,13.4,0v268.8Zm13.4-20.2V151.12h13.4v228.5H255.3Zm40.3,20.2a6.7,6.7,0,0,1-13.4,0V130.92a6.7,6.7,0,0,1,13.4,0v268.8Zm13.5-20.2V151.12h13.4v228.5H309.1Zm60.5-6.7v26.9h-6.7v-26.9Zm-20.2-13.4v47H336V124.22h13.4v235.2ZM369.6,178h-6.7v-26.9h6.7Z"/><path class="cls-2" d="M377.7,171.22h6.7v6.7a6.7,6.7,0,0,0,13.4,0V151a6.7,6.7,0,0,0-13.4,0v6.7h-6.7"/><path class="cls-2" d="M392,171.22h6.7v6.7a6.7,6.7,0,0,0,13.4,0V151a6.7,6.7,0,0,0-13.4,0v6.7H392"/><path class="cls-2" d="M406.3,171.22H413v6.7a6.7,6.7,0,0,0,13.4,0V151a6.7,6.7,0,0,0-13.4,0v6.7h-6.7"/><path class="cls-2" d="M377.7,392.22h6.7v6.7a6.7,6.7,0,0,0,13.4,0V372a6.7,6.7,0,0,0-13.4,0v6.7h-6.7"/><path class="cls-2" d="M392,392.22h6.7v6.7a6.7,6.7,0,1,0,13.4,0V372a6.7,6.7,0,1,0-13.4,0v6.7H392"/><path class="cls-2" d="M406.3,392.22H413v6.7a6.7,6.7,0,0,0,13.4,0V372a6.7,6.7,0,0,0-13.4,0v6.7h-6.7"/></g></g></svg>