<?xml version="1.0" encoding="utf-8"?>
<!-- Generator: Adobe Illustrator 21.0.2, SVG Export Plug-In . SVG Version: 6.00 Build 0)  -->
<svg version="1.1" id="Layer_1" xmlns="http://www.w3.org/2000/svg" xmlns:xlink="http://www.w3.org/1999/xlink" x="0px" y="0px"
	 viewBox="-15 -10 200 150" style="enable-background:new 0 0 171.5 122.4;" xml:space="preserve">
<style type="text/css">
	.st0{fill:#fff;}
	.st1{fill:#fff;}
</style>
<circle class="st0" cx="85" cy="70.5" r="2.6"/>
<circle class="st0" cx="85" cy="86.1" r="3.4"/>
<circle class="st0" cx="85" cy="101.8" r="4.1"/>
<circle class="st0" cx="85" cy="117.5" r="4.9"/>
<ellipse transform="matrix(0.866 -0.5 0.5 0.866 -19.4624 59.9051)" class="st0" cx="102.1" cy="66.3" rx="2.6" ry="2.6"/>
<ellipse transform="matrix(0.866 -0.5 0.5 0.866 -25.1952 65.6378)" class="st0" cx="109.9" cy="79.8" rx="3.4" ry="3.4"/>
<ellipse transform="matrix(0.866 -0.5 0.5 0.866 -30.9281 71.3706)" class="st0" cx="117.7" cy="93.4" rx="4.1" ry="4.1"/>
<ellipse transform="matrix(0.866 -0.5 0.5 0.866 -36.661 77.104)" class="st0" cx="125.5" cy="107" rx="4.9" ry="4.9"/>
<ellipse transform="matrix(0.5 -0.866 0.866 0.5 10.459 126.3881)" class="st0" cx="114.7" cy="54.1" rx="2.6" ry="2.6"/>
<ellipse transform="matrix(0.5 -0.866 0.866 0.5 10.4573 142.0482)" class="st0" cx="128.2" cy="62" rx="3.4" ry="3.4"/>
<ellipse transform="matrix(0.5 -0.866 0.866 0.5 10.4575 157.711)" class="st0" cx="141.8" cy="69.8" rx="4.1" ry="4.1"/>
<ellipse transform="matrix(0.5 -0.866 0.866 0.5 10.458 173.3742)" class="st0" cx="155.4" cy="77.6" rx="4.9" ry="4.9"/>
<circle class="st0" cx="119.6" cy="37.3" r="2.6"/>
<circle class="st0" cx="135.2" cy="37.3" r="3.4"/>
<circle class="st0" cx="150.9" cy="37.3" r="4.1"/>
<circle class="st0" cx="166.5" cy="37.3" r="4.9"/>
<ellipse transform="matrix(0.5 -0.866 0.866 0.5 -22.6918 91.8825)" class="st0" cx="68.2" cy="65.6" rx="2.6" ry="2.6"/>
<ellipse transform="matrix(0.5 -0.866 0.866 0.5 -38.3542 91.8823)" class="st0" cx="60.4" cy="79.2" rx="3.4" ry="3.4"/>
<ellipse transform="matrix(0.5 -0.866 0.866 0.5 -54.0167 91.8831)" class="st0" cx="52.6" cy="92.7" rx="4.1" ry="4.1"/>
<ellipse transform="matrix(0.5 -0.866 0.866 0.5 -69.6793 91.8838)" class="st0" cx="44.7" cy="106.3" rx="4.9" ry="4.9"/>
<ellipse transform="matrix(0.866 -0.5 0.5 0.866 -18.9667 35.1422)" class="st0" cx="56.1" cy="53" rx="2.6" ry="2.6"/>
<ellipse transform="matrix(0.866 -0.5 0.5 0.866 -24.6997 29.4098)" class="st0" cx="42.5" cy="60.8" rx="3.4" ry="3.4"/>
<ellipse transform="matrix(0.866 -0.5 0.5 0.866 -30.432 23.6761)" class="st0" cx="29" cy="68.6" rx="4.1" ry="4.1"/>
<ellipse transform="matrix(0.866 -0.5 0.5 0.866 -36.1653 17.9438)" class="st0" cx="15.4" cy="76.5" rx="4.9" ry="4.9"/>
<circle class="st0" cx="51.9" cy="36" r="2.6"/>
<circle class="st0" cx="36.2" cy="36" r="3.4"/>
<circle class="st0" cx="20.6" cy="36" r="4.1"/>
<circle class="st0" cx="4.9" cy="36" r="4.9"/>
<path class="st1" d="M82.2,43.8L82.2,43.8h7h0.1h7l5.2-5.2c0.9-0.9,1.5-2.2,1.5-3.5V20.7c0-1.1-0.9-2-2-2h-5.6V0H76.2v18.7h-5.6
	c-1.1,0-2,0.9-2,2v14.5c0,1.3,0.5,2.6,1.5,3.5l5.2,5.2H82.2z M79.2,3c0.4-0.8,3.8-0.8,4.2,0v14.8c-0.5,1-3.9,1-4.2,0V3z M73.6,23.7
	h24.3v11.5l-8.7,8.7V25.7h-7v18.1l-8.7-8.7V23.7z"/>
<path class="st1" d="M102.9,50.8v-5c-4.1,0-30.2,0-34.3,0v5C81.4,50.8,90.3,50.8,102.9,50.8z"/>
</svg>
