<?xml version="1.0" encoding="utf-8"?>
<!-- Generator: Adobe Illustrator 21.0.2, SVG Export Plug-In . SVG Version: 6.00 Build 0)  -->
<svg version="1.1" id="Artwork" xmlns="http://www.w3.org/2000/svg" xmlns:xlink="http://www.w3.org/1999/xlink" x="0px" y="0px"
	 viewBox="0 0 512 512" style="enable-background:new 0 0 512 512;" xml:space="preserve">
<style type="text/css">
	.st0{fill:none;stroke:#5B8AB8;stroke-width:10.0245;stroke-miterlimit:10;}
	.st1{fill:#5B8AB8;}
	.st2{fill:#B6B6B6;}
	.st3{fill:#999999;}
</style>
<path class="st0" d="M33.5,46.2c123.6,30.7,118.9,100.4,177.2,149.9"/>
<path class="st0" d="M57.9,87.4c120.6,41,110.1,110,164.1,164.1"/>
<path class="st0" d="M102.5,52.7c111.6,61.4,89.2,127.5,132.9,190.2"/>
<g>
	<g>
		<path class="st1" d="M353.1,253c1.1,0.7,2.4,1,3.6,1c1.9,0,3.8-0.8,5.1-2.4l105.4-126.1c1.7-2,2-4.5,0.9-6.9s-3.5-3.6-6-3.6H420
			l39.2-79.1c1.5-2.9,0.5-6.7-2.2-8.5c-2.8-1.9-6.4-1.5-8.7,0.9L337,150c-1.8,1.9-2.3,5-1.2,7.3c1.1,2.4,3.5,4.1,6.1,4.1h48.7
			l-39.8,83.2C349.3,247.8,350.3,251.2,353.1,253z M407.1,157.3c1-2,0.8-4.3-0.3-6.2c-1.2-1.9-3.4-2.9-5.6-2.9H357l69.5-75.9
			l-23,46.1c-1,2-0.9,4.6,0.3,6.6c1.2,1.9,3.4,3.3,5.6,3.3h38.5l-62.4,74.5L407.1,157.3z"/>
	</g>
</g>
<g>
	<g>
		<g>
			<g>
				<path class="st2" d="M112.1,139.3l39.3-63.5c20.6,12.8,38.4,28.5,53.9,44.9c15.5,16.5,28.8,33.9,41.1,51.2
					c12.3,17.3,23.5,34.7,34.5,51.8c11,17,21.7,33.7,32.6,49.8l-61.7,42.1c-23.6-34.5-44.3-69.3-66.4-100.5
					c-11-15.6-22.4-30.3-34.6-43.2C138.6,158.9,125.8,147.8,112.1,139.3z"/>
				<path class="st3" d="M112.6,139.6l39.6-63.4c1.9-3.1,6.1-4.1,9.2-2c2.8,1.9,5.5,3.8,8.2,5.7c3,2.2,3.5,6.3,1.2,9.3l-45.5,59.3
					c-2.3,2.9-5.6,4.1-7.5,2.7c-1.7-1.3-3.5-2.4-5.2-3.7C110.6,146.3,110.6,142.7,112.6,139.6z"/>
				<path class="st2" d="M112.1,139.3l39.3-63.5c1.9-3.1,6-4.1,9.2-2c2.8,1.8,5.5,3.8,8.3,5.7c3,2.2,3.5,6.4,1.3,9.3l-45.3,59.4
					c-2.3,2.9-5.6,4.2-7.5,2.7c-1.8-1.2-3.5-2.5-5.2-3.6C110.1,146,110.1,142.4,112.1,139.3z"/>
				<path class="st3" d="M127.4,150.1l46.4-58.6c1.1-1.4,2.7-2.3,4.4-2.5s3.5,0.2,4.8,1.4c2.5,2.1,5,4.2,7.4,6.4
					c1.3,1.2,2,2.8,2.1,4.5c0,1.7-0.6,3.4-1.9,4.7l-51,54.6c-1.3,1.3-2.8,2.2-4.2,2.5s-2.8,0.1-3.7-0.7c-1.7-1.5-3.4-2.9-5-4.4
					c-0.9-0.8-1.3-2.1-1.2-3.5C125.6,153.2,126.3,151.6,127.4,150.1z"/>
				<path class="st2" d="M126.9,149.8l46.2-58.7c2.3-2.9,6.5-3.4,9.2-1.1c2.5,2.1,5,4.2,7.4,6.4c2.7,2.4,2.8,6.5,0.2,9.2L139,160.3
					c-2.5,2.7-6,3.5-7.9,1.9c-1.7-1.5-3.4-2.9-5-4.3C124.3,156.2,124.7,152.7,126.9,149.8z"/>
				<path class="st3" d="M141.6,162.5l51.7-53.9c1.3-1.3,2.9-2.1,4.6-2.1c1.7-0.1,3.3,0.5,4.5,1.8c2.3,2.2,4.4,4.5,6.6,6.8
					c2.4,2.5,2,6.6-0.7,9.1l-55.2,50.4c-2.7,2.5-6.4,2.9-8.1,1.1c-1.6-1.7-3.2-3.4-4.9-5c-0.9-0.9-1.2-2.2-0.9-3.7
					C139.5,165.4,140.3,163.9,141.6,162.5z"/>
				<path class="st2" d="M141.1,162.1l51.6-54.1c2.5-2.7,6.7-2.9,9.2-0.4l3.4,3.4l3.3,3.4c2.4,2.5,2.1,6.6-0.7,9.1l-55,50.6
					c-2.7,2.5-6.3,2.9-8.1,1.1l-2.4-2.5l-2.4-2.4C138,168.3,138.6,164.8,141.1,162.1z"/>
				<path class="st3" d="M155.2,176.6l55.7-49.9c2.7-2.5,6.8-2.4,9,0.2c2,2.3,4,4.7,5.9,7c2.1,2.6,1.5,6.6-1.4,8.9l-58.1,47
					c-2.9,2.3-6.6,2.5-8.3,0.4c-1.6-1.8-3.1-3.7-4.7-5.5C151.6,182.7,152.4,179.1,155.2,176.6z"/>
				<path class="st2" d="M154.7,176.1l55.5-50c2.8-2.5,6.8-2.4,9.1,0.2c2.1,2.3,4,4.7,6,7c2.2,2.6,1.5,6.6-1.3,8.9l-58,47.1
					c-2.9,2.3-6.6,2.5-8.3,0.4c-1.6-1.8-3.1-3.7-4.7-5.5C151.2,182.2,152,178.6,154.7,176.1z"/>
				<path class="st3" d="M168.2,192.1l58.5-46.5c2.9-2.3,6.9-2.1,8.9,0.6l5.4,7.1c1.9,2.6,1.1,6.5-1.9,8.7l-60.2,44.3
					c-3,2.2-6.7,2.1-8.4-0.1l-4.5-6C164.3,198,165.3,194.4,168.2,192.1z"/>
				<path class="st2" d="M167.7,191.5l58.4-46.6c2.9-2.3,6.9-2.1,8.9,0.5c1.9,2.4,3.6,4.7,5.4,7.1c2,2.6,1.1,6.5-1.9,8.7l-60.1,44.3
					c-3,2.2-6.7,2.1-8.4-0.1c-1.5-2-3-4-4.5-5.9C163.9,197.4,164.9,193.8,167.7,191.5z"/>
				<path class="st3" d="M180.7,208.6l60.4-43.9c3-2.2,6.9-1.8,8.8,0.8l5,7.1c1.8,2.6,0.8,6.4-2.2,8.5l-61.6,42.3
					c-3,2.1-6.8,1.9-8.5-0.5l-4.4-6.3C176.6,214.4,177.7,210.8,180.7,208.6z"/>
				<path class="st2" d="M180.3,208l60.4-44c3-2.2,6.9-1.8,8.8,0.8l5,7.1c1.8,2.6,0.8,6.4-2.2,8.5l-61.6,42.4
					c-3,2.1-6.8,1.9-8.4-0.5l-4.4-6.3C176.2,213.8,177.3,210.2,180.3,208z"/>
				<path class="st3" d="M192.9,226l61.7-42.1c3-2.1,7-1.6,8.7,1l4.7,7.1c1.7,2.6,0.6,6.4-2.5,8.4l-62.4,41.1
					c-3.1,2-6.9,1.7-8.5-0.7l-4.4-6.6C188.7,231.7,189.9,228.1,192.9,226z"/>
				<path class="st2" d="M192.5,225.4l61.7-42.1c3-2.1,7-1.7,8.7,1l4.7,7.1c1.7,2.6,0.6,6.4-2.5,8.4l-62.4,41.1
					c-3.1,2-6.9,1.7-8.5-0.7l-4.4-6.6C188.3,231.1,189.5,227.5,192.5,225.4z"/>
				<path class="st3" d="M205,244l62.5-41c3.1-2,7-1.6,8.7,1l4.5,7c1.7,2.6,0.5,6.3-2.6,8.3l-62.8,40.5c-3.1,2-6.9,1.6-8.6-0.9
					l-4.4-6.8C200.7,249.7,201.9,246,205,244z"/>
				<path class="st2" d="M204.6,243.4l62.5-41c3.1-2,7-1.6,8.7,1l4.5,7c1.7,2.6,0.5,6.3-2.6,8.3l-62.8,40.5c-3.1,2-6.9,1.6-8.6-0.9
					l-4.4-6.8C200.3,249.1,201.5,245.4,204.6,243.4z"/>
				<path class="st3" d="M217,262.6l62.8-40.4c3.1-2,6.9-1.5,8.6,1l4.4,6.9c1.6,2.5,0.4,6.2-2.7,8.2l-62.8,40.5c-3.1,2-7,1.5-8.6-1
					l-4.4-6.9C212.7,268.2,213.9,264.5,217,262.6z"/>
				<path class="st2" d="M216.6,261.9l62.8-40.5c3.1-2,6.9-1.5,8.6,1l4.4,6.9c1.6,2.5,0.4,6.2-2.7,8.2L226.9,278c-3.1,2-7,1.5-8.6-1
					l-4.4-6.9C212.3,267.6,213.5,263.9,216.6,261.9z"/>
				<path class="st3" d="M229.1,281.4l62.8-40.6c3.1-2,6.9-1.6,8.5,0.9l4.4,6.7c1.6,2.5,0.4,6.1-2.7,8.1l-62.4,41.1
					c-3.1,2-7,1.6-8.7-1l-4.6-7C224.8,287.1,226,283.4,229.1,281.4z"/>
				<path class="st2" d="M228.7,280.8l62.8-40.5c3.1-2,6.9-1.6,8.5,0.9l4.4,6.7c1.6,2.5,0.4,6.1-2.7,8.1l-62.4,41.1
					c-3.1,2-7,1.6-8.7-1l-4.6-7C224.4,286.5,225.6,282.8,228.7,280.8z"/>
				<path class="st3" d="M241.6,300.5l62.3-41.2c3.1-2,6.9-1.7,8.5,0.7l4.4,6.6c1.6,2.4,0.5,6-2.6,8.1l-61.6,42.2
					c-3,2.1-7,1.7-8.7-0.9l-4.7-7.1C237.4,306.3,238.5,302.5,241.6,300.5z"/>
				<path class="st2" d="M241.1,299.9l62.4-41.2c3.1-2,6.9-1.7,8.5,0.7l4.4,6.6c1.6,2.4,0.5,6-2.6,8.1l-61.7,42.2
					c-3,2.1-7,1.7-8.7-0.9l-4.7-7.1C237,305.6,238,301.9,241.1,299.9z"/>
			</g>
			<g>
				<path class="st2" d="M252.6,316.9l61.6-42.2c11,16,22.2,31.4,34.1,45.6c11.9,14.3,24.5,27.4,37.9,39.1
					c13.4,11.6,27.8,21.7,43,29.9c15.2,8.2,31.3,14.7,48.1,19.2l-19.7,72.1c-22.1-6-43.7-14.6-64-25.6s-39.2-24.3-56.3-39.1
					c-17.1-14.8-32.4-31-46.4-47.7C277,351.4,264.4,334.2,252.6,316.9z"/>
				<path class="st3" d="M253,317.5l61.6-42.3c3-2.1,6.8-1.8,8.5,0.5c1.5,2.1,3,4.3,4.5,6.4c1.6,2.3,0.6,6-2.4,8.1l-60.6,43.7
					c-3,2.2-6.9,1.8-8.8-0.8c-1.7-2.4-3.3-4.7-5-7.1C248.9,323.4,250,319.6,253,317.5z"/>
				<path class="st2" d="M252.6,316.9l61.6-42.2c3-2.1,6.8-1.8,8.5,0.5c1.5,2.1,3,4.3,4.5,6.4c1.6,2.3,0.6,5.9-2.4,8.1l-60.7,43.6
					c-3,2.2-6.9,1.8-8.8-0.8c-1.7-2.4-3.3-4.7-5-7.1C248.5,322.8,249.5,319,252.6,316.9z"/>
				<path class="st3" d="M266.5,336.7l60.4-44c3-2.2,6.7-2.1,8.4,0.2c1.5,2,3,4.1,4.6,6.1c1.7,2.2,0.7,5.8-2.2,8.1l-59,45.8
					c-2.9,2.3-6.9,2-8.9-0.6c-1.8-2.3-3.5-4.7-5.3-7C262.6,342.7,263.5,338.8,266.5,336.7z"/>
				<path class="st2" d="M266.1,336l60.5-43.9c3-2.2,6.8-2.1,8.4,0.2l4.6,6.1c1.7,2.2,0.7,5.8-2.2,8.1l-59.1,45.7
					c-2.9,2.3-6.9,2-8.9-0.6l-5.3-7C262.2,342.1,263.1,338.2,266.1,336z"/>
				<path class="st3" d="M280.8,355.6l58.8-46.2c2.9-2.3,6.6-2.3,8.4-0.2l4.7,5.8c1.8,2.1,0.9,5.7-1.9,8.1l-56.9,48.4
					c-2.8,2.4-6.8,2.3-8.9-0.3c-1.9-2.3-3.8-4.6-5.7-6.9C277.2,361.8,277.9,357.9,280.8,355.6z"/>
				<path class="st2" d="M280.3,355l58.8-46.1c2.9-2.3,6.7-2.4,8.4-0.2l4.7,5.8c1.8,2.1,0.9,5.7-1.9,8.1l-57,48.3
					c-2.8,2.4-6.8,2.3-9-0.3l-5.6-6.9C276.7,361.2,277.4,357.3,280.3,355z"/>
				<path class="st3" d="M296.1,374.2l56.6-48.8c2.8-2.4,6.5-2.7,8.3-0.7l4.9,5.4c1.8,1.9,1.1,5.6-1.5,8.1l-54.2,51.4
					c-2.7,2.5-6.7,2.6-9,0.2l-6.1-6.7C292.8,380.6,293.3,376.6,296.1,374.2z"/>
				<path class="st2" d="M295.6,373.6l56.7-48.7c2.8-2.4,6.5-2.7,8.3-0.6c1.6,1.8,3.3,3.6,4.9,5.5c1.8,2,1.1,5.6-1.5,8.1l-54.3,51.3
					c-2.7,2.5-6.7,2.6-9,0.1c-2-2.3-4.1-4.5-6.1-6.8C292.3,380,292.8,376,295.6,373.6z"/>
				<path class="st3" d="M312.6,392.3l53.8-51.9c2.7-2.6,6.3-3.1,8.2-1.2c1.7,1.7,3.4,3.4,5.1,5c1.9,1.8,1.4,5.4-1.1,8.1L327.7,407
					c-2.5,2.7-6.6,3-9.1,0.7c-2.2-2.2-4.4-4.3-6.6-6.5C309.7,398.9,309.9,394.8,312.6,392.3z"/>
				<path class="st2" d="M312,391.7l53.9-51.8c2.7-2.5,6.3-3.1,8.2-1.2c1.7,1.7,3.4,3.4,5.1,5c1.9,1.8,1.4,5.4-1.1,8.2l-51,54.6
					c-2.5,2.7-6.6,3-9.1,0.6c-2.2-2.2-4.4-4.3-6.6-6.5C309.1,398.3,309.3,394.3,312,391.7z"/>
				<path class="st3" d="M330.3,409.6l50.4-55.2c2.5-2.7,6.1-3.5,8-1.8c1.7,1.6,3.6,3.1,5.3,4.6c2,1.7,1.7,5.3-0.6,8.2l-46.9,58.2
					c-2.3,2.9-6.4,3.5-9,1.2c-2.4-2-4.8-4-7.1-6.1C327.9,416.4,327.8,412.3,330.3,409.6z"/>
				<path class="st2" d="M329.7,409l50.5-55.1c2.5-2.7,6.1-3.5,8-1.8c1.7,1.6,3.5,3.1,5.3,4.6c2,1.7,1.7,5.3-0.6,8.2L346,423
					c-2.3,2.9-6.4,3.5-9,1.2c-2.4-2-4.8-4-7.1-6.1C327.3,415.8,327.2,411.7,329.7,409z"/>
				<path class="st3" d="M349.5,425.8l46.2-58.7c2.3-2.9,5.8-4,7.8-2.4c0.9,0.7,1.8,1.4,2.8,2.1l2.8,2c2,1.5,2.1,5.1,0,8.2
					l-42.2,61.7c-2.1,3.1-6.1,4-9,1.9l-3.9-2.8c-1.3-0.9-2.5-1.9-3.8-2.8C347.5,432.8,347.2,428.7,349.5,425.8z"/>
				<path class="st2" d="M348.8,425.3l46.4-58.6c1.1-1.4,2.6-2.4,4-2.8s2.8-0.3,3.8,0.4l2.8,2.1l2.8,2c1,0.7,1.5,2,1.5,3.5
					s-0.5,3.1-1.6,4.7l-42.3,61.6c-1,1.5-2.6,2.5-4.2,2.9c-1.6,0.3-3.3,0-4.8-1l-3.9-2.8l-3.8-2.9c-1.4-1.1-2.2-2.6-2.3-4.2
					C347.2,428.5,347.7,426.7,348.8,425.3z"/>
				<path class="st3" d="M370,440.7l41.4-62.2c2.1-3.1,5.4-4.4,7.5-3.1c1.9,1.2,3.9,2.5,5.8,3.6c2.2,1.3,2.4,4.9,0.6,8.1l-36.9,65
					c-1.8,3.2-5.8,4.4-8.8,2.6c-2.8-1.6-5.5-3.3-8.1-5C368.6,447.9,367.9,443.7,370,440.7z"/>
				<path class="st2" d="M369.3,440.2l41.6-62.1c2.1-3.1,5.4-4.3,7.5-3c1.9,1.2,3.8,2.5,5.8,3.6c2.2,1.3,2.4,4.9,0.6,8.1l-37,64.9
					c-1.8,3.2-5.8,4.4-8.8,2.6c-2.8-1.6-5.4-3.3-8.1-5C367.9,447.4,367.2,443.3,369.3,440.2z"/>
				<path class="st3" d="M391.8,453.9l36-65.5c1.8-3.2,5-4.8,7.2-3.7c2,1,4,2.1,6.1,3.1c2.3,1.1,2.9,4.6,1.3,8l-31.1,67.9
					c-1.5,3.4-5.4,4.9-8.6,3.4c-2.9-1.4-5.7-2.9-8.6-4.3C391,461.2,390,457.1,391.8,453.9z"/>
				<path class="st2" d="M391,453.5l36.2-65.4c1.8-3.2,5-4.8,7.2-3.7l6.1,3.1c2.3,1.1,2.8,4.6,1.3,8l-31.3,67.8
					c-1.5,3.4-5.4,4.9-8.6,3.3c-2.9-1.4-5.7-2.9-8.6-4.3C390.3,460.7,389.2,456.7,391,453.5z"/>
				<path class="st3" d="M414.7,465.3L445,397c1.5-3.4,4.6-5.3,6.9-4.3c2.1,0.9,4.2,1.7,6.3,2.5c2.3,0.9,3.3,4.4,2,7.9L435,473.4
					c-1.2,3.5-4.9,5.4-8.2,4.1c-3-1.2-6-2.3-8.9-3.6C414.6,472.5,413.2,468.7,414.7,465.3z"/>
				<path class="st2" d="M413.9,465l30.5-68.2c1.5-3.4,4.6-5.3,6.9-4.3l1.6,0.7l1.6,0.6l3.2,1.2c2.3,1,3.2,4.4,2,7.9l-25.4,70.3
					c-1.2,3.5-5,5.4-8.3,4.1l-4.5-1.8l-2.2-0.9l-2.2-0.9C413.8,472.2,412.4,468.3,413.9,465z"/>
				<path class="st3" d="M438.5,474.6l24.3-70.7c0.6-1.7,1.6-3.1,2.8-4c1.2-0.9,2.5-1.3,3.7-0.9l3.3,1c1.1,0.4,2.2,0.6,3.3,1
					c2.4,0.7,3.6,4.1,2.7,7.7L459.3,481c-0.9,3.6-4.4,5.7-7.8,4.7c-1.5-0.4-3.1-0.9-4.6-1.3l-4.5-1.5c-1.7-0.5-3-1.7-3.7-3.2
					C438,478.2,437.9,476.4,438.5,474.6z"/>
				<path class="st2" d="M437.7,474.4l24.5-70.6c1.2-3.5,4.1-5.6,6.5-4.9c2.2,0.7,4.3,1.4,6.6,2c2.4,0.7,3.6,4.1,2.7,7.7l-19.5,72.1
					c-0.9,3.6-4.5,5.7-7.9,4.7c-3.1-0.8-6.1-1.9-9.1-2.8C438.2,481.7,436.5,477.8,437.7,474.4z"/>
			</g>
		</g>
	</g>
</g>
</svg>
