<svg id="SvgjsSvg1000" xmlns="http://www.w3.org/2000/svg" version="1.1" xmlns:xlink="http://www.w3.org/1999/xlink" xmlns:svgjs="http://svgjs.com/svgjs" width="18" height="19" viewBox="0 0 18 19"><title>Forma 1</title><desc>Created with Avocode.</desc><defs id="SvgjsDefs1001"></defs><path id="SvgjsPath1007" d="M486.281 10.4943C485.332 8.280260000000002 483.72 6.67055 481.48900000000003 5.718530000000001C480.374 5.242740000000001 479.20500000000004 4.999550000000001 477.985 4.999550000000001C476.765 4.999550000000001 475.605 5.2405300000000015 474.491 5.718530000000001C472.279 6.667900000000001 470.659 8.277170000000002 469.70799999999997 10.4943C469.23199999999997 11.604800000000001 468.99999999999994 12.7687 468.99999999999994 13.989700000000001C468.99999999999994 15.211 469.23199999999997 16.3844 469.70799999999997 17.4953C470.659 19.7127 472.279 21.331400000000002 474.491 22.2808C475.60499999999996 22.759 476.765 22.9998 477.985 22.9998C479.20500000000004 22.9998 480.374 22.7566 481.48900000000003 22.2808C483.71900000000005 21.3292 485.33200000000005 19.7087 486.281 17.4953C486.759 16.381 487 15.211 487 13.989700000000001C487 12.7687 486.759 11.6088 486.281 10.4943ZM484.845 17.968C484.13800000000003 19.1804 483.17 20.1422 481.951 20.8532C480.74 21.560100000000002 479.41200000000003 21.916600000000003 477.985 21.916600000000003C476.91200000000003 21.916600000000003 475.889 21.7098 474.915 21.2862C473.94 20.8629 473.09900000000005 20.3066 472.39500000000004 19.6024C471.69100000000003 18.8985 471.13100000000003 18.0487 470.71200000000005 17.072C470.2950000000001 16.0988 470.09200000000004 15.063199999999998 470.09200000000004 13.9897C470.09200000000004 12.5619 470.44300000000004 11.240599999999999 471.146 10.0315C471.851 8.81822 472.819 7.8553999999999995 474.029 7.146559999999999C475.239 6.4372799999999994 476.558 6.082759999999999 477.985 6.082759999999999C479.41200000000003 6.082759999999999 480.73900000000003 6.439489999999998 481.951 7.146559999999999C483.17 7.857379999999999 484.136 8.820429999999998 484.844 10.0315C485.553 11.2424 485.907 12.5619 485.907 13.9897C485.907 15.4178 485.555 16.7481 484.84499999999997 17.968ZM478.556 13.9108L478.556 8.810279999999999C478.556 8.505139999999999 478.28999999999996 8.259089999999999 477.98499999999996 8.259089999999999C477.69999999999993 8.259089999999999 477.44399999999996 8.505139999999999 477.44399999999996 8.810279999999999L477.44399999999996 13.9897C477.44399999999996 13.999899999999998 477.46299999999997 14.0391 477.46299999999997 14.068499999999998C477.44399999999996 14.245899999999999 477.49299999999994 14.393399999999998 477.611 14.512099999999998L480.554 17.4559C480.751 17.653 481.11499999999995 17.653 481.311 17.4559C481.53799999999995 17.2292 481.52299999999997 16.9007 481.311 16.6879Z " fill="#ffffff" fill-opacity="1" transform="matrix(1,0,0,1,-469,-4)"></path></svg>