<svg id="SvgjsSvg1000" xmlns="http://www.w3.org/2000/svg" version="1.1" xmlns:xlink="http://www.w3.org/1999/xlink" xmlns:svgjs="http://svgjs.com/svgjs" width="21" height="28" viewBox="0 0 21 28"><title>Forma 1</title><desc>Created with Avocode.</desc><defs id="SvgjsDefs1001"></defs><path id="SvgjsPath1007" d="M903.071 3463.87C901.182 3462.02 898.671 3461 896 3461C893.328 3461 890.817 3462.02 888.929 3463.87C885.433 3467.2999999999997 884.999 3473.75 887.9879999999999 3477.65L896 3489L903.999 3477.67C907 3473.75 906.566 3467.3 903.071 3463.87ZM896.092 3474.29C894.08 3474.29 892.442 3472.69 892.442 3470.72C892.442 3468.74 894.08 3467.14 896.092 3467.14C898.1039999999999 3467.14 899.742 3468.74 899.742 3470.72C899.742 3472.6899999999996 898.1039999999999 3474.29 896.092 3474.29Z " fill="#ffffff" fill-opacity="1" transform="matrix(1,0,0,1,-885,-3461)"></path></svg>