<svg id="SvgjsSvg1000" xmlns="http://www.w3.org/2000/svg" version="1.1" xmlns:xlink="http://www.w3.org/1999/xlink" xmlns:svgjs="http://svgjs.com/svgjs" width="26" height="26" viewBox="0 0 26 26"><title>Shape 1</title><desc>Created with Avocode.</desc><defs id="SvgjsDefs1001"></defs><path id="SvgjsPath1007" d="M1397 754C1404.17 754 1410 759.832 1410 767C1410 774.168 1404.17 780 1397 780C1389.83 780 1384 774.168 1384 767C1384 759.832 1389.83 754 1397 754ZM1397 778.701C1403.45 778.701 1408.7 773.452 1408.7 767C1408.7 760.548 1403.45 755.299 1397 755.299C1390.55 755.299 1385.3 760.548 1385.3 767C1385.3 773.452 1390.55 778.701 1397 778.701ZM1390.89 766.539L1394.5500000000002 762.886C1394.8000000000002 762.631 1395.2100000000003 762.631 1395.4600000000003 762.886C1395.7200000000003 763.14 1395.7200000000003 763.548 1395.4600000000003 763.803L1392.9200000000003 766.348L1402.6500000000003 766.348C1403.0100000000002 766.348 1403.3000000000004 766.64 1403.3000000000004 767C1403.3000000000004 767.36 1403.0100000000004 767.652 1402.6500000000003 767.652L1392.9200000000003 767.652L1395.4700000000003 770.197C1395.7200000000003 770.451 1395.7200000000003 770.859 1395.4700000000003 771.114C1395.2100000000003 771.369 1394.8100000000002 771.369 1394.5500000000002 771.114L1390.9 767.461C1390.77 767.3340000000001 1390.71 767.17 1390.71 767C1390.71 766.83 1390.77 766.666 1390.89 766.539Z " fill="#0d67b3" fill-opacity="1" transform="matrix(1,0,0,1,-1384,-754)"></path></svg>