<svg id="SvgjsSvg1008" xmlns="http://www.w3.org/2000/svg" version="1.1" xmlns:xlink="http://www.w3.org/1999/xlink" xmlns:svgjs="http://svgjs.com/svgjs" width="26" height="26" viewBox="0 0 26 26"><title>Shape 1</title><desc>Created with Avocode.</desc><defs id="SvgjsDefs1009"></defs><path id="SvgjsPath1010" d="M1437 754C1429.83 754 1424 759.832 1424 767C1424 774.168 1429.83 780 1437 780C1444.17 780 1450 774.168 1450 767C1450 759.832 1444.17 754 1437 754ZM1437 778.701C1430.55 778.701 1425.3 773.452 1425.3 767C1425.3 760.548 1430.55 755.299 1437 755.299C1443.45 755.299 1448.7 760.548 1448.7 767C1448.7 773.452 1443.45 778.701 1437 778.701ZM1443.11 766.539L1439.4499999999998 762.886C1439.1999999999998 762.631 1438.7899999999997 762.631 1438.5399999999997 762.886C1438.2799999999997 763.14 1438.2799999999997 763.548 1438.5399999999997 763.803L1441.0799999999997 766.348L1431.3499999999997 766.348C1430.9899999999998 766.348 1430.6999999999996 766.64 1430.6999999999996 767C1430.6999999999996 767.36 1430.9899999999996 767.652 1431.3499999999997 767.652L1441.0799999999997 767.652L1438.5299999999997 770.197C1438.2799999999997 770.451 1438.2799999999997 770.859 1438.5299999999997 771.114C1438.7899999999997 771.369 1439.1899999999998 771.369 1439.4499999999998 771.114L1443.1 767.461C1443.23 767.3340000000001 1443.29 767.17 1443.29 767C1443.29 766.83 1443.23 766.666 1443.11 766.539Z " fill="#0d67b3" fill-opacity="1" transform="matrix(1,0,0,1,-1424,-754)"></path></svg>