<svg id="SvgjsSvg1011" xmlns="http://www.w3.org/2000/svg" version="1.1" xmlns:xlink="http://www.w3.org/1999/xlink" xmlns:svgjs="http://svgjs.com/svgjs" width="18" height="15" viewBox="0 0 18 15"><title>Shape 1</title><desc>Created with Avocode.</desc><defs id="SvgjsDefs1012"></defs><path id="SvgjsPath1013" d="M1325.8 8.99967L1312.2 8.99967C1310.99 8.99967 1310 10.0084 1310 11.2492L1310 20.75C1310 21.9909 1310.99 22.9998 1312.2 22.9998L1325.8 22.9998C1327.01 22.9998 1328 21.9909 1328 20.75L1328 11.2532C1328 10.0123 1327.02 8.99967 1325.8 8.99967ZM1327 20.75C1327 21.4238 1326.46 21.9717 1325.8 21.9717L1312.2 21.9717C1311.54 21.9717 1311.01 21.4238 1311.01 20.75L1311.01 11.2532C1311.01 10.5794 1311.54 10.0313 1312.2 10.0313L1325.8 10.0313C1326.46 10.0313 1326.99 10.5794 1326.99 11.2532L1326.99 20.75ZM1321.35 15.8819L1325.75 11.8467C1325.96 11.656600000000001 1325.98 11.3332 1325.79 11.1198C1325.6 10.9106 1325.29 10.891399999999999 1325.08 11.0819L1319.01 16.6507L1317.82 15.569500000000001C1317.82 15.565500000000002 1317.82 15.562000000000001 1317.82 15.558000000000002C1317.79 15.531500000000001 1317.76 15.508400000000002 1317.74 15.485700000000001L1312.92 11.077900000000001C1312.71 10.887800000000002 1312.39 10.906600000000001 1312.2 11.119800000000001C1312.02 11.333200000000001 1312.04 11.656600000000001 1312.25 11.846700000000002L1316.7 15.9158L1312.26 20.1602C1312.06 20.3543 1312.05 20.6779 1312.24 20.8872C1312.34 20.9937 1312.48 21.0508 1312.61 21.0508C1312.7299999999998 21.0508 1312.86 21.0049 1312.9499999999998 20.9138L1317.4599999999998 16.6088L1318.6799999999998 17.7242C1318.7699999999998 17.8115 1318.8899999999999 17.8536 1319.0099999999998 17.8536C1319.1299999999997 17.8536 1319.2499999999998 17.8075 1319.3499999999997 17.7202L1320.5999999999997 16.570899999999998L1325.0799999999997 20.917399999999997C1325.1799999999996 21.0128 1325.2999999999997 21.0585 1325.4299999999996 21.0585C1325.5599999999997 21.0585 1325.6899999999996 21.0049 1325.7899999999995 20.8986C1325.9799999999996 20.692899999999998 1325.9699999999996 20.365499999999997 1325.7699999999995 20.171499999999998Z " fill="#ffffff" fill-opacity="1" transform="matrix(1,0,0,1,-1310,-8)"></path></svg>