<svg id="SvgjsSvg1008" xmlns="http://www.w3.org/2000/svg" version="1.1" xmlns:xlink="http://www.w3.org/1999/xlink" xmlns:svgjs="http://svgjs.com/svgjs" width="11" height="22" viewBox="0 0 11 22"><title>Forma 1</title><desc>Created with Avocode.</desc><defs id="SvgjsDefs1009"></defs><path id="SvgjsPath1010" d="M923.581 4.99801L915.419 4.99801C914.638 4.99801 914.008 5.65084 914.008 6.45536L914.008 23.5455C914.008 24.3491 914.638 25.0011 915.419 25.0011L923.581 25.0011C924.36 25.0011 924.992 24.3491 924.992 23.5455L924.992 6.455359999999999C924.992 5.650839999999999 924.36 4.998009999999999 923.581 4.998009999999999ZM919.501 23.5633C919.004 23.5633 918.6 23.1462 918.6 22.632900000000003C918.6 22.120300000000004 919.004 21.704300000000003 919.501 21.704300000000003C919.996 21.704300000000003 920.4 22.120300000000004 920.4 22.632900000000003C920.4 23.146200000000004 919.996 23.5633 919.501 23.5633ZM917.486 5.883L921.516 5.883C921.617 5.883 921.699 6.03976 921.699 6.2331199999999995C921.699 6.42758 921.617 6.584779999999999 921.516 6.584779999999999L917.486 6.584779999999999C917.384 6.584779999999999 917.302 6.427579999999999 917.302 6.2331199999999995C917.302 6.039759999999999 917.384 5.882999999999999 917.486 5.882999999999999ZM923.934 20.3785L915.0659999999999 20.3785L915.0659999999999 7.456989999999999L923.934 7.456989999999999Z " fill="#ffffff" fill-opacity="1" transform="matrix(1,0,0,1,-914,-4)"></path></svg>