<svg id="SvgjsSvg1000" xmlns="http://www.w3.org/2000/svg" version="1.1" xmlns:xlink="http://www.w3.org/1999/xlink" xmlns:svgjs="http://svgjs.com/svgjs" width="16" height="15" viewBox="0 0 16 15"><title>Forma 1</title><desc>Created with Avocode.</desc><defs id="SvgjsDefs1001"></defs><path id="SvgjsPath1007" d="M497.658 3313.46C497.43 3313.25 497.159 3313.14 496.84700000000004 3313.14L495.69300000000004 3313.14L495.69300000000004 3312.3399999999997C495.69300000000004 3311.97 495.552 3311.66 495.26900000000006 3311.39C494.98600000000005 3311.1299999999997 494.64700000000005 3311 494.25000000000006 3311L493.67400000000004 3311C493.27700000000004 3311 492.937 3311.13 492.65500000000003 3311.39C492.372 3311.66 492.23100000000005 3311.97 492.23100000000005 3312.3399999999997L492.23100000000005 3313.14L488.76900000000006 3313.14L488.76900000000006 3312.3399999999997C488.76900000000006 3311.97 488.62800000000004 3311.66 488.3450000000001 3311.39C488.0630000000001 3311.1299999999997 487.72300000000007 3311 487.3270000000001 3311L486.7500000000001 3311C486.3530000000001 3311 486.0140000000001 3311.13 485.7310000000001 3311.39C485.4480000000001 3311.66 485.30700000000013 3311.97 485.30700000000013 3312.3399999999997L485.30700000000013 3313.14L484.15300000000013 3313.14C483.8410000000001 3313.14 483.5700000000001 3313.25 483.34200000000016 3313.46C483.11400000000015 3313.67 482.99900000000014 3313.92 482.99900000000014 3314.21L482.99900000000014 3324.93C482.99900000000014 3325.22 483.11400000000015 3325.47 483.34200000000016 3325.68C483.57000000000016 3325.89 483.8410000000002 3326 484.15300000000013 3326L496.84700000000015 3326C497.15900000000016 3326 497.42900000000014 3325.89 497.65800000000013 3325.68C497.88600000000014 3325.47 498.0000000000001 3325.22 498.0000000000001 3324.93L498.0000000000001 3314.21C498.0000000000001 3313.92 497.88600000000014 3313.67 497.65800000000013 3313.46ZM493.673 3321.98L490.788 3321.98L490.788 3319.3L493.673 3319.3ZM490.211 3321.98L487.327 3321.98L487.327 3319.3L490.211 3319.3ZM496.847 3321.98L494.25 3321.98L494.25 3319.3L496.847 3319.3ZM486.749 3321.98L484.153 3321.98L484.153 3319.3L486.749 3319.3ZM493.673 3324.93L490.788 3324.93L490.788 3322.52L493.673 3322.52ZM493.673 3318.77L490.788 3318.77L490.788 3316.36L493.673 3316.36ZM490.211 3318.77L487.327 3318.77L487.327 3316.36L490.211 3316.36ZM490.211 3324.93L487.327 3324.93L487.327 3322.52L490.211 3322.52ZM496.847 3324.93L494.25 3324.93L494.25 3322.52L496.847 3322.52ZM486.749 3324.93L484.153 3324.93L484.153 3322.52L486.749 3322.52ZM486.749 3318.77L484.153 3318.77L484.153 3316.36L486.749 3316.36ZM486.547 3314.94C486.49 3314.88 486.461 3314.82 486.461 3314.75L486.461 3312.34C486.461 3312.27 486.49 3312.2000000000003 486.547 3312.15C486.60400000000004 3312.1 486.67100000000005 3312.07 486.75 3312.07L487.327 3312.07C487.405 3312.07 487.472 3312.1000000000004 487.529 3312.15C487.587 3312.2000000000003 487.615 3312.27 487.615 3312.34L487.615 3314.75C487.615 3314.82 487.587 3314.88 487.529 3314.94C487.472 3314.9900000000002 487.405 3315.02 487.327 3315.02L486.75 3315.02C486.671 3315.02 486.604 3314.99 486.547 3314.94ZM493.47 3314.94C493.41400000000004 3314.88 493.38500000000005 3314.82 493.38500000000005 3314.75L493.38500000000005 3312.34C493.38500000000005 3312.27 493.41400000000004 3312.2000000000003 493.47 3312.15C493.52700000000004 3312.1 493.595 3312.07 493.673 3312.07L494.25 3312.07C494.328 3312.07 494.396 3312.1000000000004 494.453 3312.15C494.51 3312.2000000000003 494.539 3312.27 494.539 3312.34L494.539 3314.75C494.539 3314.82 494.51 3314.88 494.453 3314.94C494.39599999999996 3314.9900000000002 494.328 3315.02 494.25 3315.02L493.673 3315.02C493.595 3315.02 493.527 3314.99 493.47 3314.94ZM496.847 3318.77L494.25 3318.77L494.25 3316.36L496.847 3316.36Z " fill="#5b8ab8" fill-opacity="1" transform="matrix(1,0,0,1,-482,-3311)"></path></svg>