<svg id="SvgjsSvg1014" xmlns="http://www.w3.org/2000/svg" version="1.1" xmlns:xlink="http://www.w3.org/1999/xlink" xmlns:svgjs="http://svgjs.com/svgjs" width="16" height="11" viewBox="0 0 16 11"><title>Shape 1</title><desc>Created with Avocode.</desc><defs id="SvgjsDefs1015"></defs><path id="SvgjsPath1016" d="M504.29 665L493.711 665C492.767 665 491.999 665.792 491.999 666.767L491.999 674.2320000000001C491.999 675.2070000000001 492.767 676.0000000000001 493.711 676.0000000000001L504.288 676.0000000000001C505.231 676.0000000000001 506 675.2070000000001 506 674.2320000000001L506 666.7700000000001C506.003 665.796 505.234 665.0000000000001 504.29 665.0000000000001ZM505.22 674.232C505.22 674.762 504.80300000000005 675.192 504.29 675.192L493.711 675.192C493.199 675.192 492.78200000000004 674.7620000000001 492.78200000000004 674.232L492.78200000000004 666.77C492.78200000000004 666.241 493.199 665.81 493.711 665.81L504.288 665.81C504.8 665.81 505.217 666.241 505.217 666.77L505.217 674.232ZM500.828 670.407L504.253 667.2370000000001C504.412 667.0870000000001 504.426 666.8330000000001 504.282 666.666C504.137 666.5010000000001 503.89 666.4860000000001 503.728 666.6350000000001L499.007 671.0110000000001L498.085 670.162C498.082 670.159 498.08 670.1560000000001 498.08 670.153C498.05899999999997 670.1320000000001 498.039 670.114 498.01599999999996 670.096L494.268 666.633C494.10499999999996 666.4830000000001 493.85999999999996 666.498 493.714 666.666C493.57 666.8330000000001 493.584 667.0870000000001 493.746 667.2370000000001L497.21099999999996 670.4340000000001L493.76099999999997 673.7690000000001C493.60499999999996 673.9210000000002 493.59599999999995 674.1760000000002 493.743 674.3400000000001C493.822 674.4240000000001 493.926 674.4680000000002 494.03 674.4680000000002C494.125 674.4680000000002 494.22099999999995 674.4330000000002 494.29699999999997 674.3610000000002L497.79799999999994 670.9780000000002L498.74899999999997 671.8550000000001C498.825 671.9230000000001 498.917 671.9560000000001 499.01 671.9560000000001C499.102 671.9560000000001 499.198 671.9200000000002 499.271 671.8520000000001L500.24600000000004 670.9480000000001L503.72800000000007 674.3640000000001C503.8040000000001 674.4380000000001 503.90200000000004 674.4750000000001 503.99800000000005 674.4750000000001C504.10200000000003 674.4750000000001 504.20300000000003 674.4330000000001 504.28200000000004 674.3490000000002C504.42900000000003 674.1870000000001 504.42400000000004 673.9300000000002 504.26700000000005 673.7770000000002Z " fill="#0d67b3" fill-opacity="1" transform="matrix(1,0,0,1,-491,-665)"></path></svg>