<svg id="SvgjsSvg1011" xmlns="http://www.w3.org/2000/svg" version="1.1" xmlns:xlink="http://www.w3.org/1999/xlink" xmlns:svgjs="http://svgjs.com/svgjs" width="9" height="13" viewBox="0 0 9 13"><title>Forma 1</title><desc>Created with Avocode.</desc><defs id="SvgjsDefs1012"></defs><path id="SvgjsPath1013" d="M498.942 638.616C498.43 638.616 498.014 639.005 498.014 639.483C498.014 639.9609999999999 498.43 640.3499999999999 498.942 640.3499999999999C499.45300000000003 640.3499999999999 499.869 639.9609999999999 499.869 639.483C499.869 639.005 499.45300000000003 638.616 498.942 638.616ZM498.942 639.917C498.68600000000004 639.917 498.478 639.722 498.478 639.4830000000001C498.478 639.244 498.68600000000004 639.0500000000001 498.942 639.0500000000001C499.197 639.0500000000001 499.40500000000003 639.244 499.40500000000003 639.4830000000001C499.40500000000003 639.7220000000001 499.197 639.917 498.942 639.917ZM498.014 629.083L498.942 629.083C499.07 629.083 499.17400000000004 628.986 499.17400000000004 628.867C499.17400000000004 628.747 499.07000000000005 628.65 498.942 628.65L498.014 628.65C497.886 628.65 497.782 628.747 497.782 628.867C497.782 628.986 497.88599999999997 629.083 498.014 629.083ZM499.637 629.083L499.869 629.083C499.997 629.083 500.10100000000006 628.986 500.10100000000006 628.867C500.10100000000006 628.747 499.99700000000007 628.65 499.869 628.65L499.637 628.65C499.509 628.65 499.405 628.747 499.405 628.867C499.405 628.986 499.50899999999996 629.083 499.637 629.083ZM502.716 640.566C502.717 640.566 502.717 640.565 502.717 640.565C502.746 640.523 502.77099999999996 640.48 502.792 640.4350000000001C502.79699999999997 640.4240000000001 502.803 640.413 502.808 640.402C502.812 640.392 502.817 640.383 502.82099999999997 640.373C502.825 640.365 502.823 640.356 502.825 640.3480000000001C502.86 640.253 502.883 640.152 502.883 640.046L502.883 634.2520000000001C502.952 634.214 503 634.147 503 634.0670000000001C503 633.9870000000001 502.951 633.9210000000002 502.883 633.8830000000002L502.883 628.9540000000002C502.883 628.4280000000002 502.426 628.0000000000002 501.86199999999997 628.0000000000002L496.02 628.0000000000002C495.45799999999997 628.0000000000002 494.99899999999997 628.4280000000002 494.99899999999997 628.9540000000002L494.99899999999997 640.0450000000002C494.99899999999997 640.5710000000001 495.45799999999997 641.0000000000002 496.02 641.0000000000002L501.978 641.0000000000002C502.01300000000003 641.0000000000002 502.045 640.9910000000002 502.076 640.9780000000002C502.213 640.9500000000002 502.716 640.5660000000001 502.716 640.5660000000001ZM495.463 629.733L502.42 629.733L502.42 637.967L495.463 637.967ZM501.862 640.566L496.02000000000004 640.566C495.713 640.566 495.463 640.3330000000001 495.463 640.046L495.463 638.4000000000001L502.42 638.4000000000001L502.42 640.0450000000001C502.42 640.1120000000001 502.40500000000003 640.176 502.38 640.234C502.365 640.272 502.34499999999997 640.307 502.32 640.341C502.21999999999997 640.477 502.052 640.566 501.86199999999997 640.566ZM496.02 628.433L501.86199999999997 628.433C502.16999999999996 628.433 502.41999999999996 628.667 502.41999999999996 628.954L502.41999999999996 629.3L495.46299999999997 629.3L495.46299999999997 628.954C495.46299999999997 628.6669999999999 495.71299999999997 628.433 496.02 628.433Z " fill="#0d67b3" fill-opacity="1" transform="matrix(1,0,0,1,-494,-628)"></path></svg>