<svg id="SvgjsSvg1000" xmlns="http://www.w3.org/2000/svg" version="1.1" xmlns:xlink="http://www.w3.org/1999/xlink" xmlns:svgjs="http://svgjs.com/svgjs" width="12" height="14" viewBox="0 0 12 14"><title>Shape 1</title><desc>Created with Avocode.</desc><defs id="SvgjsDefs1001"></defs><path id="SvgjsPath1007" d="M499.497 535C496.46700000000004 535 493.999 537.518 493.999 540.611C493.999 540.9639999999999 494.031 541.319 494.09700000000004 541.665C494.1 541.6859999999999 494.112 541.747 494.13500000000005 541.853C494.2180000000001 542.231 494.34200000000004 542.6039999999999 494.50300000000004 542.959C495.095 544.3829999999999 496.39700000000005 546.5699999999999 499.25500000000005 548.911C499.32700000000006 548.9699999999999 499.41300000000007 549 499.4990000000001 549C499.58600000000007 549 499.6720000000001 548.97 499.7440000000001 548.911C502.5990000000001 546.5699999999999 503.9040000000001 544.3829999999999 504.4960000000001 542.959C504.6570000000001 542.6039999999999 504.7800000000001 542.2349999999999 504.8640000000001 541.853C504.8870000000001 541.747 504.8990000000001 541.6859999999999 504.9020000000001 541.665C504.9650000000001 541.319 505.0000000000001 540.9639999999999 505.0000000000001 540.611C504.99400000000014 537.518 502.5270000000001 535 499.4970000000001 535ZM504.131 541.527C504.131 541.533 504.12899999999996 541.539 504.12899999999996 541.5450000000001C504.126 541.5590000000001 504.11699999999996 541.6030000000001 504.10299999999995 541.671C504.10299999999995 541.6740000000001 504.10299999999995 541.6740000000001 504.10299999999995 541.677C504.03099999999995 542.006 503.924 542.326 503.78299999999996 542.634C503.78099999999995 542.6370000000001 503.78099999999995 542.642 503.77799999999996 542.646C503.23999999999995 543.9459999999999 502.061 545.93 499.49699999999996 548.093C496.93199999999996 545.93 495.75299999999993 543.9459999999999 495.215 542.646C495.21299999999997 542.6419999999999 495.21299999999997 542.637 495.21 542.634C495.072 542.328 494.965 542.006 494.89099999999996 541.677C494.89099999999996 541.674 494.89099999999996 541.674 494.89099999999996 541.671C494.873 541.6030000000001 494.86699999999996 541.5590000000001 494.864 541.5450000000001C494.864 541.5390000000001 494.86199999999997 541.5330000000001 494.86199999999997 541.5240000000001C494.804 541.2220000000001 494.77599999999995 540.9170000000001 494.77599999999995 540.6090000000002C494.77599999999995 537.9520000000001 496.89399999999995 535.7890000000001 499.49699999999996 535.7890000000001C502.09899999999993 535.7890000000001 504.217 537.9520000000001 504.217 540.6090000000002C504.217 540.9200000000002 504.18899999999996 541.2280000000002 504.131 541.5270000000002ZM499.497 537.11C497.57300000000004 537.11 496.00600000000003 538.71 496.00600000000003 540.673C496.00600000000003 542.6370000000001 497.57300000000004 544.236 499.497 544.236C501.42 544.236 502.987 542.637 502.987 540.673C502.987 538.71 501.42 537.11 499.497 537.11ZM499.497 543.444C497.999 543.444 496.783 542.199 496.783 540.673C496.783 539.147 498.002 537.903 499.497 537.903C500.99100000000004 537.903 502.21000000000004 539.147 502.21000000000004 540.673C502.21000000000004 542.199 500.994 543.444 499.497 543.444Z " fill="#0d67b3" fill-opacity="1" transform="matrix(1,0,0,1,-493,-535)"></path></svg>