<svg id="SvgjsSvg1008" xmlns="http://www.w3.org/2000/svg" version="1.1" xmlns:xlink="http://www.w3.org/1999/xlink" xmlns:svgjs="http://svgjs.com/svgjs" width="15" height="12" viewBox="0 0 15 12"><title>Forma 1</title><desc>Created with Avocode.</desc><defs id="SvgjsDefs1009"></defs><path id="SvgjsPath1010" d="M503.651 600.509C503.63 600.415 503.557 600.341 503.462 600.321L501.791 599.961L501.581 598.582C501.562 598.461 501.46000000000004 598.373 501.338 598.373L500.685 598.373L500.685 598.0490000000001C500.685 597.9130000000001 500.574 597.8020000000001 500.439 597.8020000000001C500.30400000000003 597.8020000000001 500.194 597.9130000000001 500.194 598.0490000000001L500.194 598.373L497.805 598.373L497.805 598.0490000000001C497.805 597.9130000000001 497.696 597.8020000000001 497.56 597.8020000000001C497.425 597.8020000000001 497.314 597.9130000000001 497.314 598.0490000000001L497.314 598.373L496.661 598.373C496.539 598.373 496.437 598.461 496.418 598.582L496.208 599.961L494.53700000000003 600.321C494.442 600.341 494.369 600.4150000000001 494.348 600.509L493.214 605.655C493.21 605.672 493.208 605.6899999999999 493.208 605.708L493.208 606.7529999999999C493.208 606.8889999999999 493.317 606.9989999999999 493.45300000000003 606.9989999999999L504.54600000000005 606.9989999999999C504.6820000000001 606.9989999999999 504.79100000000005 606.8889999999999 504.79100000000005 606.7529999999999L504.79100000000005 605.708C504.79100000000005 605.6899999999999 504.78900000000004 605.672 504.7850000000001 605.655ZM494.793 600.771L496.475 600.409C496.57500000000005 600.387 496.651 600.306 496.666 600.204L496.871 598.866L501.128 598.866L501.33299999999997 600.204C501.34799999999996 600.3059999999999 501.424 600.387 501.52399999999994 600.409L503.20599999999996 600.771L504.23999999999995 605.461L493.75899999999996 605.461ZM505.98 599.057L505.12800000000004 596.998C505.09900000000005 596.926 505.03700000000003 596.873 504.963 596.8530000000001L503.939 596.586C500.93800000000005 595.803 497.06100000000004 595.803 494.06 596.586L493.036 596.8530000000001C492.961 596.873 492.9 596.926 492.871 596.998L492.019 599.057C491.995 599.114 491.994 599.177 492.014 599.235L492.354 600.196C492.39599999999996 600.311 492.514 600.379 492.63399999999996 600.355L495.87399999999997 599.703C495.974 599.683 496.051 599.603 496.06699999999995 599.502L496.34799999999996 597.8299999999999C497.89199999999994 597.439 500.10699999999997 597.439 501.65099999999995 597.8299999999999L501.9309999999999 599.502C501.9479999999999 599.603 502.0249999999999 599.683 502.12499999999994 599.703L505.3639999999999 600.355C505.3809999999999 600.3580000000001 505.39699999999993 600.36 505.4129999999999 600.36C505.5149999999999 600.36 505.6089999999999 600.296 505.6439999999999 600.196L505.9849999999999 599.235C506.0049999999999 599.177 506.0029999999999 599.114 505.9799999999999 599.057ZM496.067 597.393C495.975 597.419 495.906 597.496 495.891 597.591L495.797 598.153L492.65000000000003 598.815L493.27700000000004 597.301L494.184 597.0640000000001C497.10900000000004 596.301 500.889 596.301 503.81500000000005 597.0640000000001L504.72200000000004 597.301L505.34900000000005 598.815L502.20300000000003 598.153L502.108 597.591C502.093 597.496 502.024 597.419 501.932 597.393C500.26 596.929 497.73900000000003 596.929 496.067 597.393ZM498.999 604.992C500.452 604.992 501.63300000000004 603.803 501.63300000000004 602.341C501.63300000000004 600.88 500.45200000000006 599.691 498.999 599.691C497.547 599.691 496.36600000000004 600.88 496.36600000000004 602.341C496.36600000000004 603.803 497.547 604.992 498.999 604.992ZM498.999 600.185C500.18100000000004 600.185 501.14300000000003 601.1519999999999 501.14300000000003 602.3409999999999C501.14300000000003 603.531 500.18100000000004 604.4979999999999 498.999 604.4979999999999C497.81800000000004 604.4979999999999 496.857 603.531 496.857 602.3409999999999C496.857 601.1519999999999 497.81800000000004 600.185 498.999 600.185ZM505.253 599.829L502.387 599.252L502.291 598.6759999999999L505.428 599.3359999999999ZM492.746 599.829L492.57099999999997 599.3359999999999L495.70799999999997 598.6759999999999L495.61199999999997 599.252ZM496.696 605.955L502.035 605.955L501.71900000000005 606.5060000000001L496.3790000000001 606.5060000000001ZM502.285 606.506L502.601 605.9549999999999L504.3 605.9549999999999L504.3 606.506ZM493.699 605.955L495.188 605.955L494.872 606.5060000000001L493.699 606.5060000000001ZM496.128 605.955L495.812 606.5060000000001L495.44 606.5060000000001L495.756 605.955ZM498.999 603.282C499.51500000000004 603.282 499.934 602.86 499.934 602.341C499.934 601.823 499.51500000000004 601.401 498.999 601.401C498.48400000000004 601.401 498.065 601.823 498.065 602.341C498.065 602.86 498.484 603.282 498.999 603.282ZM498.999 601.895C499.244 601.895 499.44300000000004 602.095 499.44300000000004 602.341C499.44300000000004 602.588 499.244 602.788 498.999 602.788C498.755 602.788 498.55600000000004 602.588 498.55600000000004 602.341C498.55600000000004 602.095 498.75500000000005 601.895 498.999 601.895Z " fill="#0d67b3" fill-opacity="1" transform="matrix(1,0,0,1,-491,-595)"></path></svg>