<svg id="SvgjsSvg1017" xmlns="http://www.w3.org/2000/svg" version="1.1" xmlns:xlink="http://www.w3.org/1999/xlink" xmlns:svgjs="http://svgjs.com/svgjs" width="14" height="13" viewBox="0 0 14 13"><title>Forma 1</title><desc>Created with Avocode.</desc><defs id="SvgjsDefs1018"></defs><path id="SvgjsPath1019" d="M505.481 700.968C504.795 699.3689999999999 503.63 698.206 502.019 697.519C501.214 697.175 500.37 697 499.48900000000003 697C498.607 697 497.77000000000004 697.174 496.96500000000003 697.519C495.36800000000005 698.204 494.19800000000004 699.367 493.511 700.968C493.16700000000003 701.77 492.999 702.611 492.999 703.4929999999999C492.999 704.3739999999999 493.16700000000003 705.222 493.511 706.025C494.19800000000004 707.626 495.36800000000005 708.795 496.96500000000003 709.481C497.77000000000004 709.826 498.607 710 499.48900000000003 710C500.37 710 501.21400000000006 709.824 502.019 709.481C503.63 708.793 504.795 707.623 505.481 706.025C505.826 705.2189999999999 506 704.374 506 703.4929999999999C506 702.611 505.826 701.7729999999999 505.481 700.968ZM504.443 706.366C503.933 707.241 503.234 707.936 502.353 708.449C501.478 708.9599999999999 500.52 709.217 499.48900000000003 709.217C498.71400000000006 709.217 497.975 709.068 497.27200000000005 708.762C496.56700000000006 708.457 495.96000000000004 708.055 495.45200000000006 707.5459999999999C494.94300000000004 707.0379999999999 494.53800000000007 706.424 494.23600000000005 705.7189999999999C493.934 705.016 493.78900000000004 704.2679999999999 493.78900000000004 703.4929999999999C493.78900000000004 702.4609999999999 494.04200000000003 701.507 494.54900000000004 700.6339999999999C495.05800000000005 699.757 495.75800000000004 699.0619999999999 496.63200000000006 698.55C497.50500000000005 698.038 498.4580000000001 697.7819999999999 499.4890000000001 697.7819999999999C500.5200000000001 697.7819999999999 501.47800000000007 698.0389999999999 502.35300000000007 698.55C503.23400000000004 699.064 503.93100000000004 699.7589999999999 504.44300000000004 700.6339999999999C504.95400000000006 701.5089999999999 505.21000000000004 702.4609999999999 505.21000000000004 703.4929999999999C505.21000000000004 704.5239999999999 504.956 705.4849999999999 504.44300000000004 706.366ZM499.901 703.436L499.901 699.7520000000001C499.901 699.5310000000001 499.709 699.354 499.48900000000003 699.354C499.28200000000004 699.354 499.098 699.5310000000001 499.098 699.7520000000001L499.098 703.493C499.098 703.5 499.113 703.528 499.113 703.5500000000001C499.098 703.6780000000001 499.134 703.7840000000001 499.219 703.8700000000001L501.344 705.9960000000001C501.486 706.1380000000001 501.75 706.1380000000001 501.891 705.9960000000001C502.055 705.8330000000001 502.043 705.5950000000001 501.891 705.4410000000001Z " fill="#0d67b3" fill-opacity="1" transform="matrix(1,0,0,1,-492,-697)"></path></svg>