<svg id="SvgjsSvg1000" xmlns="http://www.w3.org/2000/svg" version="1.1" xmlns:xlink="http://www.w3.org/1999/xlink" xmlns:svgjs="http://svgjs.com/svgjs" width="13" height="10" viewBox="0 0 13 10"><title>Rectangle 313</title><desc>Created with Avocode.</desc><defs id="SvgjsDefs1001"></defs><path id="SvgjsPath1007" d="M12 16L12 14L14 14L14 16Z " fill="#ffffff" fill-opacity="1" transform="matrix(1,0,0,1,-12,-14)"></path><path id="SvgjsPath1008" d="M12 20L12 18L14 18L14 20Z " fill="#ffffff" fill-opacity="1" transform="matrix(1,0,0,1,-12,-14)"></path><path id="SvgjsPath1009" d="M12 24L12 22L14 22L14 24Z " fill="#ffffff" fill-opacity="1" transform="matrix(1,0,0,1,-12,-14)"></path><path id="SvgjsPath1010" d="M15 16L15 14L25 14L25 16Z " fill="#ffffff" fill-opacity="1" transform="matrix(1,0,0,1,-12,-14)"></path><path id="SvgjsPath1011" d="M15 20L15 18L25 18L25 20Z " fill="#ffffff" fill-opacity="1" transform="matrix(1,0,0,1,-12,-14)"></path><path id="SvgjsPath1012" d="M15 24L15 22L25 22L25 24Z " fill="#ffffff" fill-opacity="1" transform="matrix(1,0,0,1,-12,-14)"></path></svg>