<svg id="SvgjsSvg1016" xmlns="http://www.w3.org/2000/svg" version="1.1" xmlns:xlink="http://www.w3.org/1999/xlink" xmlns:svgjs="http://svgjs.com/svgjs" width="12" height="14" viewBox="0 0 12 14"><title>Forma 1</title><desc>Created with Avocode.</desc><defs id="SvgjsDefs1017"></defs><path id="SvgjsPath1018" d="M13.4929 426L24.506999999999998 426C24.783599999999996 426 24.999999999999996 425.783 24.999999999999996 425.506L24.999999999999996 412.49399999999997C24.999999999999996 412.217 24.783599999999996 411.99999999999994 24.506999999999998 411.99999999999994L16.246499999999997 411.99999999999994C16.210399999999996 411.99999999999994 16.1623 411.99999999999994 16.126199999999997 412.01199999999994C16.114199999999997 412.01199999999994 16.102199999999996 412.02399999999994 16.102199999999996 412.02399999999994C16.066099999999995 412.03599999999994 16.042099999999998 412.04799999999994 16.005999999999997 412.05999999999995C15.993999999999996 412.07199999999995 15.981899999999996 412.07199999999995 15.969899999999997 412.08399999999995C15.933799999999998 412.10799999999995 15.897799999999997 412.1329999999999 15.873699999999998 412.1689999999999L13.120199999999997 415.4249999999999C13.084099999999998 415.4609999999999 13.060099999999997 415.5089999999999 13.035999999999998 415.5569999999999C13.023999999999997 415.5689999999999 13.023999999999997 415.5929999999999 13.023999999999997 415.6049999999999C13.011999999999997 415.6419999999999 13.011999999999997 415.6779999999999 12.999999999999998 415.7139999999999C12.999999999999998 415.7259999999999 12.999999999999998 415.7259999999999 12.999999999999998 415.7379999999999L12.999999999999998 425.4929999999999C12.999999999999998 425.7829999999999 13.228399999999999 425.9999999999999 13.492899999999999 425.9999999999999ZM14 416L16 416C16.2765 416 17 415.277 17 415L17 413L24 413L24.014 425.011L13.985899999999999 425.011ZM22.5196 419.005L15.4804 419.005C15.206 419.005 14.9912 419.222 14.9912 419.5C14.9912 419.777 15.206 419.994 15.4804 419.994L22.5196 419.994C22.794 419.994 23.0088 419.77700000000004 23.0088 419.5C23.0088 419.222 22.794 419.005 22.5196 419.005ZM16 414L16 415L15 415ZM22.5196 420.986L15.4804 420.986C15.206 420.986 14.9912 421.21 14.9912 421.497C14.9912 421.783 15.206 422.007 15.4804 422.007L22.5196 422.007C22.794 422.007 23.0088 421.783 23.0088 421.497C23.0088 421.223 22.794 420.986 22.5196 420.986Z " fill="#ffffff" fill-opacity="1" transform="matrix(1,0,0,1,-13,-412)"></path></svg>