<?xml version="1.0" encoding="utf-8"?>
<!-- Generator: Adobe Illustrator 21.0.2, SVG Export Plug-In . SVG Version: 6.00 Build 0)  -->
<svg version="1.1" id="Layer_1" xmlns="http://www.w3.org/2000/svg" xmlns:xlink="http://www.w3.org/1999/xlink" x="0px" y="0px"
	 viewBox="0 0 512 512" style="enable-background:new 0 0 512 512;" xml:space="preserve">
<style type="text/css">
	.st0{fill:#5B8AB8;}
	.st1{fill:#B6B6B6;}
</style>
<g>
	<path class="st0" d="M62.3,430.6c-2,0-4.1-0.8-5.7-2.3c-3.1-3.1-3.1-8.2,0-11.3l93.5-93.5c3.1-3.1,8.2-3.1,11.3,0
		c3.1,3.1,3.1,8.2,0,11.3L68,428.3C66.4,429.8,64.3,430.6,62.3,430.6z"/>
	<path class="st0" d="M86.4,448.7c-2,0-4.1-0.8-5.7-2.3c-3.1-3.1-3.1-8.2,0-11.3l90.5-90.5c3.1-3.1,8.2-3.1,11.3,0
		c3.1,3.1,3.1,8.2,0,11.3l-90.5,90.5C90.5,447.9,88.5,448.7,86.4,448.7z"/>
	<path class="st0" d="M44.2,406.5c-2,0-4.1-0.8-5.7-2.3c-3.1-3.1-3.1-8.2,0-11.3l90.5-90.5c3.1-3.1,8.2-3.1,11.3,0
		c3.1,3.1,3.1,8.2,0,11.3l-90.5,90.5C48.3,405.7,46.2,406.5,44.2,406.5z"/>
</g>
<path class="st1" d="M509.7,369.5l-69.4-69.4c-1.7-1.7-4-2.5-6.4-2.3l-66.4,6c-1.9,0.2-3.6,1-4.9,2.3l-6.4,6.4L282,238.4l76-76
	l12.4,12.4c1.6,1.6,3.6,2.3,5.7,2.3s4.1-0.8,5.7-2.3l51.3-51.3c0.7-0.7,1.2-1.5,1.6-2.3l30.2-66.4c1.4-3,0.7-6.6-1.6-9L439,21.8
	c-2.4-2.4-5.9-3-9-1.6l-66.4,30.2c-0.9,0.4-1.7,0.9-2.3,1.6l-51.3,51.3c-3.1,3.1-3.1,8.2,0,11.3l12.4,12.4l-76,76l-45-45l6.4-6.4
	c1.3-1.3,2.1-3.1,2.3-4.9l6-66.4c0.2-2.4-0.6-4.7-2.3-6.4L144.6,4.5c-3.1-3.1-8.2-3.1-11.3,0l-30.2,30.2c-3.1,3.1-3.1,8.2,0,11.3
	l51.7,51.7l-55.1,55.1L48.1,101c-3.1-3.1-8.2-3.1-11.3,0L6.6,131.2c-3.1,3.1-3.1,8.2,0,11.3L76,211.9c1.5,1.5,3.5,2.3,5.7,2.3
	c0.2,0,0.5,0,0.7,0l66.4-6c1.9-0.2,3.6-1,4.9-2.3l6.4-6.4l45,45l-31.1,31.1l-9.4-9.4c-2.3-2.3-5.8-3-8.8-1.7l-42.1,18c0,0,0,0,0,0
	l-0.1,0.1c-0.1,0-0.1,0.1-0.2,0.1c-0.2,0.1-0.3,0.2-0.5,0.2c-0.1,0.1-0.2,0.1-0.3,0.2c-0.1,0.1-0.3,0.1-0.4,0.2
	c-0.1,0.1-0.2,0.2-0.4,0.3c-0.1,0.1-0.2,0.1-0.3,0.2c-0.1,0.1-0.3,0.2-0.4,0.4c0,0-0.1,0.1-0.1,0.1l-0.1,0.1c0,0,0,0,0,0l-93.3,93.3
	c0,0,0,0,0,0l-0.1,0.1c0,0-0.1,0.1-0.1,0.2c-0.1,0.1-0.2,0.3-0.3,0.4c-0.1,0.1-0.2,0.2-0.2,0.3c-0.1,0.1-0.2,0.2-0.2,0.3
	c-0.1,0.1-0.2,0.3-0.3,0.4c0,0.1-0.1,0.1-0.1,0.2l-0.1,0.2c0,0,0,0,0,0l-15,27c-1.7,3.1-1.2,7,1.3,9.5l66.4,66.4
	c1.5,1.5,3.6,2.3,5.7,2.3c1.3,0,2.7-0.3,3.9-1l27.2-15.1c0.1,0,0.1-0.1,0.2-0.1c0.1-0.1,0.3-0.2,0.4-0.3c0.1-0.1,0.2-0.2,0.3-0.2
	c0.1-0.1,0.2-0.1,0.3-0.2c0.1-0.1,0.3-0.2,0.4-0.3c0.1,0,0.1-0.1,0.2-0.1l0.1-0.1c0,0,0,0,0,0l93.4-93.4c0.1-0.1,0.2-0.2,0.3-0.3
	c0.1-0.1,0.1-0.1,0.2-0.2c0,0,0,0,0.1-0.1c0.2-0.2,0.4-0.5,0.5-0.8c0-0.1,0.1-0.1,0.1-0.2c0.2-0.3,0.3-0.6,0.5-0.9c0,0,0,0,0-0.1
	l0.1-0.1c0,0,0,0,0,0l18-42.1c1.3-3,0.6-6.5-1.7-8.8l-9.4-9.4l31.1-31.1l74.2,74.2l-6.4,6.4c-1.3,1.3-2.1,3.1-2.3,4.9l-6,66.4
	c-0.2,2.4,0.6,4.7,2.3,6.4l69.4,69.4c1.6,1.6,3.6,2.3,5.7,2.3s4.1-0.8,5.7-2.3l30.2-30.2c3.1-3.1,3.1-8.2,0-11.3l-51.7-51.7
	l55.1-55.1l51.7,51.7c3.1,3.1,8.2,3.1,11.3,0l30.2-30.2C512.8,377.7,512.8,372.6,509.7,369.5z M326,342.7l-79.8-79.8l0,0l0,0
	L222,238.8l-50.6-50.6l18.9-18.9l50.6,50.6L265,244h0l79.8,79.8L326,342.7z M185.2,286.9l31.1-31.1l12.8,12.8l-31.1,31.1
	L185.2,286.9z M346.6,151.1l-76,76l-12.8-12.8l76-76L346.6,151.1z M371.6,64.3l60-27.3l16.3,16.3l-27.3,60L376,157.9l-12.4-12.4
	l-24.1-24.1L327,108.9L371.6,64.3z M144.4,192.5l-59.8,5.4l-61.1-61.1L42.4,118l51.7,51.7c3.1,3.1,8.2,3.1,11.3,0l66.4-66.4
	c3.1-3.1,3.1-8.2,0-11.3l-51.7-51.7L139,21.4l61.1,61.1l-5.4,59.8l-10,10l-30.2,30.2L144.4,192.5z M150.2,334.7
	C150.2,334.8,150.2,334.8,150.2,334.7C150.2,334.8,150.2,334.8,150.2,334.7l21.1,21.1l12.4,12.4l-82.2,82.2L68,417l-33.6-33.6
	l82.2-82.2l12.4,12.4L150.2,334.7z M75.8,467l-57.8-57.8l7-12.6l31.7,31.7L88.4,460L75.8,467z M192.3,354.3l-9.7-9.7l-21.1-21.1
	c0,0,0,0-0.1-0.1c0,0,0,0-0.1,0l-21.1-21.1l-9.7-9.7l26.4-11.3l11.3,11.3l24.1,24.1l11.3,11.3L192.3,354.3z M473.8,394l-51.7-51.7
	c-3.1-3.1-8.2-3.1-11.3,0l-66.4,66.4c-3.1,3.1-3.1,8.2,0,11.3l51.7,51.7l-18.9,18.9l-61.1-61.1l5.4-59.8l10-10l30.2-30.2
	c0,0,0,0,0,0l10-10l59.8-5.4l61.1,61.1L473.8,394z"/>
</svg>
