<?xml version="1.0" encoding="utf-8"?>
<!-- Generator: Adobe Illustrator 21.0.2, SVG Export Plug-In . SVG Version: 6.00 Build 0)  -->
<svg version="1.1" id="Layer_1" xmlns="http://www.w3.org/2000/svg" xmlns:xlink="http://www.w3.org/1999/xlink" x="0px" y="0px"
	 viewBox="0 0 126 135.3" style="enable-background:new 0 0 126 135.3;" xml:space="preserve">
<style type="text/css">
	.st0{fill:#B6B6B6;}
	.st1{fill:#5B8AB8;}
</style>
<g id="Layer_1_1_">
</g>
<g id="Layer_2">
	<g>
		<path class="st0" d="M72.6,109.2C75.1,109.9,83,98,81.8,97l0,0C80.3,96.5,71,107,72.6,109.2L72.6,109.2z"/>
		<path class="st0" d="M74.5,115.7c1.4-2.2,15.1,1.6,14.9,3.2l0,0C88.6,120.3,74.7,118.4,74.5,115.7L74.5,115.7z"/>
		<g>
			<path class="st0" d="M44.3,135.6l-1.8,0.7c1.1-3.2,3.5-8.4,8.1-13.2c0.9-0.9,3.5-3.4,7.9-5.9s10.8-4.7,18.2-6.3
				c7.2-1.8,14.9-5.8,21.3-12s11.5-14.5,14.2-23.4c2.8-8.9,3.4-18.4,1.9-27c-1.4-8.6-5-16-9.1-21.5c-8.2-10.7-17-14.3-17.3-14.7
				c0.3,0.4,9.2,3.8,17.6,14.5c4.3,5.5,8,13,9.5,21.6c1.6,8.6,1.2,18.3-1.6,27.4c-2.7,9.1-7.7,17.7-14.2,24.1
				c-6.5,6.5-14.4,10.8-21.9,12.7c-7.4,1.8-13.4,3.9-17.6,6.4c-4.2,2.4-6.5,4.8-7.4,5.6C48.5,128.5,45.9,132.6,44.3,135.6z"/>
		</g>
		<g>
			<path class="st0" d="M82.2,135.3L84,136c-1.1-3.2-3.5-8.4-8.1-13.2c-0.9-0.9-3.5-3.4-7.9-5.9s-10.8-4.7-18.2-6.3
				c-7.2-1.8-14.9-5.8-21.3-12C22.1,92.3,17,84.1,14.2,75.1c-2.8-8.9-3.4-18.4-1.9-27c1.4-8.6,5-16,9.1-21.5
				c8.2-10.7,17-14.3,17.3-14.7c-0.3,0.4-9.2,3.8-17.6,14.5c-4.3,5.5-8,13-9.5,21.6c-1.6,8.6-1.2,18.3,1.6,27.4
				c2.7,9.1,7.7,17.7,14.2,24.1c6.5,6.5,14.4,10.8,21.9,12.7c7.3,1.8,13.4,4,17.6,6.4s6.5,4.8,7.4,5.6
				C78.1,128.2,80.6,132.3,82.2,135.3z"/>
		</g>
		<g>
			<path class="st0" d="M76.8,116.6L76.8,116.6L76.8,116.6L76.8,116.6L76.8,116.6L76.8,116.6z M76.9,116.4v0.3l0,0
				c-3.6-0.6-5.4-2.4-5.4-4.5l0,0c0-1.5,0.9-3.1,2.7-4.6l0.2,0.2l0,0c-1.7,1.4-2.6,3-2.6,4.4l0,0C71.7,114.1,73.4,115.8,76.9,116.4
				L76.9,116.4z"/>
		</g>
		<path class="st0" d="M82.4,106.1c2.6,0.2,7.8-13.1,6.4-13.8l0,0C87.2,92.1,80.4,104.3,82.4,106.1L82.4,106.1z"/>
		<path class="st0" d="M85.6,112.2c0.9-2.4,15.2-1.5,15.2,0l0,0C100.3,113.6,86.3,114.7,85.6,112.2L85.6,112.2z"/>
		<g>
			<path class="st0" d="M88,112.6v-0.3c-0.2,0-0.4,0-0.6,0l0,0c-3.6,0-5.4-1.6-5.4-3.8l0,0c0-1.2,0.5-2.6,1.7-4.1l0,0l-0.2-0.2
				c-1.2,1.5-1.7,3-1.7,4.2l0,0c0,1.2,0.5,2.2,1.5,3l0,0c1,0.7,2.4,1.2,4.2,1.2l0,0C87.6,112.6,87.8,112.6,88,112.6L88,112.6z"/>
		</g>
		<g>
			<path class="st0" d="M91,101c2.6-0.4,4.9-14.4,3.4-14.9l0,0C92.8,86.3,88.6,99.7,91,101L91,101z"/>
			<path class="st0" d="M95.4,106.3c0.4-2.6,14.5-4.7,14.9-3.2l0,0C110.1,104.7,96.6,108.7,95.4,106.3L95.4,106.3z"/>
			<g>
				<path class="st0" d="M95.2,106.5L95.2,106.5L95.2,106.5c-1.4,0-2.6-0.4-3.3-1.1l0,0c-0.8-0.7-1.2-1.7-1.2-3l0,0
					c0-1.1,0.3-2.2,0.9-3.5l0.3,0.1l0,0c-0.6,1.2-0.9,2.4-0.9,3.4l0,0c0,2.3,1.5,3.8,4.2,3.8l0,0c0.8,0,1.6-0.1,2.5-0.4l0.1,0.3l0,0
					C96.9,106.4,96,106.5,95.2,106.5L95.2,106.5z M97.9,106.2L97.9,106.2L97.9,106.2L97.9,106.2L97.9,106.2L97.9,106.2z"/>
			</g>
		</g>
		<g>
			<path class="st0" d="M98.6,94.2c2.4-0.9,1.8-15.1,0.2-15.2l0,0C97.4,79.4,96,93.4,98.6,94.2L98.6,94.2z"/>
			<path class="st0" d="M104,98.4c-0.1-2.6,13.2-7.6,13.9-6.2l0,0C118,93.7,105.7,100.5,104,98.4L104,98.4z"/>
			<g>
				<path class="st0" d="M102.6,98.8c1.1,0,2.4-0.3,3.8-1.1l0,0l-0.1-0.3c-1.4,0.7-2.6,1-3.7,1l0,0c-2.4,0-3.8-1.6-3.8-4.2l0,0
					c0-0.7,0.1-1.4,0.3-2.2l0,0h-0.3c-0.2,0.8-0.3,1.6-0.3,2.3l0,0c0,1.4,0.4,2.5,1.1,3.3l0,0C100.3,98.4,101.3,98.8,102.6,98.8
					L102.6,98.8L102.6,98.8L102.6,98.8z"/>
			</g>
		</g>
		<g>
			<path class="st0" d="M104.6,85.8c2.2-1.4-1.4-15.2-2.9-15l0,0C100.3,71.6,102,85.6,104.6,85.8L104.6,85.8z"/>
			<path class="st0" d="M110.8,88.8c-0.7-2.5,11.4-10.2,12.3-9l0,0C123.6,81.4,112.9,90.5,110.8,88.8L110.8,88.8z"/>
			<g>
				<path class="st0" d="M108.5,89.6c1.3,0,2.9-0.6,4.5-1.9l0,0l0,0l-0.2-0.2c-1.6,1.3-3.1,1.9-4.3,1.9l0,0c-2.3,0-3.8-2-3.8-5.3
					l0,0c0-0.1,0-0.3,0-0.4l0,0h-0.3c0,0.1,0,0.3,0,0.4l0,0c0,1.7,0.4,3.1,1.1,4.1l0,0C106.2,89.1,107.2,89.6,108.5,89.6L108.5,89.6
					L108.5,89.6L108.5,89.6z"/>
			</g>
		</g>
		<path class="st0" d="M108.8,76.3c1.9-1.8-4.5-14.5-6-14l0,0C101.6,63.3,106.1,76.6,108.8,76.3L108.8,76.3z"/>
		<path class="st0" d="M115.4,78c-1.2-2.3,9-12.3,10.2-11.3l0,0C126.4,68,117.8,79.2,115.4,78L115.4,78z"/>
		<g>
			<path class="st0" d="M117.4,76.4L117.4,76.4l-0.2-0.2c-1.6,1.9-3.2,2.8-4.6,2.8l0,0c-2,0-3.6-1.7-4.2-4.9l0,0h-0.3
				c0.5,3.2,2.3,5.1,4.4,5.1l0,0C114,79.3,115.7,78.4,117.4,76.4L117.4,76.4z"/>
		</g>
		<g>
			<path class="st0" d="M111.4,66.1c1.5-2.2-7.5-13.3-8.8-12.5l0,0C101.7,54.9,108.9,67,111.4,66.1L111.4,66.1z"/>
			<path class="st0" d="M118.3,66.4c-1.6-2,6.2-13.9,7.6-13.2l0,0C126.9,54.3,120.9,67,118.3,66.4L118.3,66.4z"/>
			<g>
				<path class="st0" d="M119.8,64.4l-0.3-0.1c-1.3,2.6-3,3.8-4.6,3.8l0,0c-1.7,0-3.3-1.4-4.4-4l0,0l-0.3,0.1
					c1.1,2.7,2.8,4.2,4.7,4.2l0,0C116.7,68.4,118.5,67.1,119.8,64.4L119.8,64.4z"/>
			</g>
		</g>
		<g>
			<path class="st0" d="M111.6,55.6c1-2.4-10.1-11.4-11.2-10.4l0,0C99.8,46.7,109.3,57,111.6,55.6L111.6,55.6z"/>
			<path class="st0" d="M118.4,54.5c-2-1.6,3.2-14.9,4.7-14.5l0,0C124.3,40.9,121,54.6,118.4,54.5L118.4,54.5z"/>
			<g>
				<path class="st0" d="M119.5,52.2L119.5,52.2l-0.3-0.1c-0.9,3.2-2.6,4.7-4.4,4.7l0,0c-1.5,0-3.1-1-4.5-3l0,0l-0.2,0.2
					c1.4,2.1,3.1,3.2,4.7,3.2l0,0C116.8,57.2,118.6,55.5,119.5,52.2L119.5,52.2z"/>
			</g>
		</g>
		<g>
			<path class="st0" d="M110.2,45.3c0.5-2.6-12.2-9.1-13.1-7.8l0,0C96.8,39,108.2,47.2,110.2,45.3L110.2,45.3z"/>
			<path class="st0" d="M116.5,42.8c-2.3-1.2,0.1-15.2,1.6-15.2l0,0C119.5,28.3,119.2,42.3,116.5,42.8L116.5,42.8z"/>
			<g>
				<path class="st0" d="M117.2,40.4L117.2,40.4h-0.3c-0.2,3.8-1.9,5.6-4,5.6l0,0c-1.3,0-2.8-0.7-4.3-2.1l0,0l-0.2,0.2
					c1.5,1.5,3.1,2.2,4.5,2.2l0,0C115.2,46.3,117,44.2,117.2,40.4L117.2,40.4z"/>
			</g>
		</g>
		<path class="st0" d="M106.4,35.7c-0.1-2.6-13.8-6.4-14.4-4.9l0,0C91.9,32.3,104.8,37.9,106.4,35.7L106.4,35.7z"/>
		<path class="st0" d="M112.1,31.9c-2.5-0.7-3.1-14.9-1.6-15.2l0,0C112,17.1,114.6,30.9,112.1,31.9L112.1,31.9z"/>
		<g>
			<path class="st0" d="M111.2,34.8c0.7-0.9,1.1-2.1,1.1-3.7l0,0c0-0.5,0-1.1-0.1-1.7l0,0l0,0h-0.3c0.1,0.6,0.1,1.2,0.1,1.7l0,0
				c0,3.1-1.5,4.7-3.8,4.7l0,0c-1.1,0-2.4-0.4-3.8-1.3l0,0l-0.2,0.2c1.4,0.9,2.8,1.3,3.9,1.3l0,0l0,0l0,0
				C109.5,36.1,110.5,35.7,111.2,34.8L111.2,34.8z"/>
		</g>
		<path class="st0" d="M100.9,27.1c-0.6-2.5-14.9-3.3-15.1-1.8l0,0C86.1,26.8,99.9,29.6,100.9,27.1L100.9,27.1z"/>
		<path class="st0" d="M105.7,22.2c-2.6-0.1-6.1-13.9-4.7-14.5l0,0C102.6,7.7,107.9,20.7,105.7,22.2L105.7,22.2z"/>
		<g>
			<path class="st0" d="M104.8,26.2c0.7-0.7,1.2-1.8,1.2-3.1l0,0c0-1-0.2-2.1-0.7-3.3l0,0l-0.3,0.1c0.5,1.2,0.7,2.3,0.7,3.2l0,0
				c0,2.5-1.5,3.9-4,3.9l0,0c-0.9,0-1.8-0.2-2.9-0.6l0,0l-0.1,0.3c1.1,0.4,2.1,0.6,3,0.6l0,0C103,27.3,104.1,26.9,104.8,26.2
				L104.8,26.2z"/>
		</g>
		<path class="st0" d="M93.3,20c-1.1-2.3-15.2-0.2-15.2,1.3l0,0C78.7,22.8,92.8,22.6,93.3,20L93.3,20z"/>
		<path class="st0" d="M96.9,14.2C94.4,14.6,88,1.8,89.3,1l0,0C90.8,0.7,98.8,12.3,96.9,14.2L96.9,14.2z"/>
		<path class="st0" d="M91.1,14.1c-1.9,1.7-14.2-5.6-13.6-7l0,0C78.7,6.1,91.6,11.5,91.1,14.1L91.1,14.1z"/>
		<g>
			<path class="st0" d="M96.2,19c0.9-0.7,1.3-1.7,1.3-2.9l0,0c0-1.2-0.5-2.7-1.5-4.2l0,0l0,0L95.8,12c1,1.5,1.4,2.9,1.4,4.1l0,0
				c0,2.3-1.7,3.7-4.7,3.7l0,0c-0.4,0-0.9,0-1.4-0.1l0,0V20c0.5,0.1,1,0.1,1.5,0.1l0,0C94.1,20.1,95.3,19.7,96.2,19L96.2,19z"/>
		</g>
		<path class="st0" d="M53.3,109.2C50.8,109.9,43,98,44.2,97l0,0C45.7,96.5,55,107,53.3,109.2L53.3,109.2z"/>
		<path class="st0" d="M51.5,115.7c-1.4-2.2-15.1,1.6-14.9,3.2l0,0C37.4,120.3,51.3,118.4,51.5,115.7L51.5,115.7z"/>
		<g>
			<path class="st0" d="M54.6,112.1c0-1.5-0.9-3.1-2.7-4.6l0,0l-0.2,0.2c1.7,1.4,2.6,3,2.6,4.4l0,0c0,2-1.7,3.6-5.2,4.2l0,0l0,0v0.3
				C52.7,116.1,54.6,114.3,54.6,112.1L54.6,112.1z"/>
		</g>
		<path class="st0" d="M43.6,106.1c-2.6,0.2-7.8-13.1-6.4-13.8l0,0C38.7,92.1,45.6,104.3,43.6,106.1L43.6,106.1z"/>
		<path class="st0" d="M40.4,112.2c-0.9-2.4-15.2-1.5-15.2,0l0,0C25.7,113.6,39.7,114.7,40.4,112.2L40.4,112.2z"/>
		<g>
			<path class="st0" d="M42.8,111.4c1-0.7,1.5-1.8,1.5-3l0,0c0-1.3-0.6-2.8-1.7-4.2l0,0l-0.2,0.2c1.1,1.5,1.7,2.9,1.7,4.1l0,0
				c0,2.2-1.8,3.8-5.4,3.8l0,0c-0.2,0-0.4,0-0.6,0l0,0l0,0v0.3c0.2,0,0.4,0,0.6,0l0,0C40.4,112.6,41.8,112.1,42.8,111.4L42.8,111.4z
				"/>
		</g>
		<g>
			<path class="st0" d="M35,101c-2.6-0.4-4.9-14.4-3.4-14.9l0,0C33.1,86.3,37.4,99.7,35,101L35,101z"/>
			<path class="st0" d="M30.6,106.3c-0.4-2.6-14.5-4.7-14.9-3.2l0,0C15.9,104.7,29.4,108.7,30.6,106.3L30.6,106.3z"/>
			<g>
				<path class="st0" d="M34.1,105.4c0.8-0.7,1.2-1.7,1.2-3l0,0c0-1.1-0.3-2.2-0.9-3.5l0,0L34.1,99c0.6,1.2,0.9,2.4,0.9,3.4l0,0
					c0,2.3-1.5,3.8-4.3,3.8l0,0c-0.8,0-1.6-0.1-2.5-0.4l0,0l-0.1,0.3c1,0.3,1.8,0.4,2.6,0.4l0,0C32.2,106.5,33.3,106.1,34.1,105.4
					L34.1,105.4z"/>
			</g>
		</g>
		<g>
			<path class="st0" d="M27.4,94.2C25,93.3,25.6,79.1,27.2,79l0,0C28.6,79.4,29.9,93.4,27.4,94.2L27.4,94.2z"/>
			<path class="st0" d="M22,98.4c0.1-2.6-13.2-7.6-13.9-6.2l0,0C7.9,93.7,20.3,100.5,22,98.4L22,98.4z"/>
			<g>
				<path class="st0" d="M26.4,97.6c0.7-0.8,1.1-1.9,1.1-3.3l0,0c0-0.7-0.1-1.5-0.3-2.3l0,0l-0.3,0.1c0.2,0.8,0.3,1.6,0.3,2.2l0,0
					c0,2.6-1.4,4.2-3.8,4.2l0,0c-1,0-2.3-0.3-3.7-1l0,0l0,0l-0.1,0.3c1.4,0.7,2.7,1.1,3.8,1.1l0,0l0,0l0,0
					C24.7,98.8,25.7,98.4,26.4,97.6L26.4,97.6z"/>
			</g>
		</g>
		<g>
			<path class="st0" d="M21.3,85.8c-2.2-1.4,1.4-15.2,2.9-15l0,0C25.6,71.6,24,85.6,21.3,85.8L21.3,85.8z"/>
			<path class="st0" d="M15.2,88.8c0.7-2.5-11.4-10.2-12.3-9l0,0C2.4,81.4,13.1,90.5,15.2,88.8L15.2,88.8z"/>
			<g>
				<path class="st0" d="M20.5,88.1c0.7-1,1.1-2.4,1.1-4.1l0,0c0-0.1,0-0.3,0-0.4l0,0h-0.3c0,0.1,0,0.3,0,0.4l0,0
					c0,3.3-1.5,5.3-3.8,5.3l0,0c-1.2,0-2.7-0.6-4.3-1.9l0,0L13,87.7c1.6,1.3,3.2,1.9,4.5,1.9l0,0l0,0l0,0
					C18.7,89.6,19.8,89.1,20.5,88.1L20.5,88.1z"/>
			</g>
		</g>
		<path class="st0" d="M17.2,76.3c-1.9-1.8,4.5-14.5,6-14l0,0C24.3,63.3,19.9,76.6,17.2,76.3L17.2,76.3z"/>
		<path class="st0" d="M10.6,78c1.2-2.3-9-12.3-10.2-11.3l0,0C-0.4,68,8.2,79.2,10.6,78L10.6,78z"/>
		<g>
			<path class="st0" d="M17.9,74.2h-0.3c-0.5,3.1-2.2,4.9-4.2,4.9l0,0c-1.4,0-3-0.9-4.6-2.8l0,0l0,0l-0.2,0.2c1.6,2,3.3,2.9,4.8,2.9
				l0,0C15.6,79.3,17.3,77.4,17.9,74.2L17.9,74.2z"/>
		</g>
		<g>
			<path class="st0" d="M14.6,66.1c-1.5-2.2,7.5-13.3,8.8-12.5l0,0C24.2,54.9,17.1,67,14.6,66.1L14.6,66.1z"/>
			<path class="st0" d="M7.7,66.4c1.6-2-6.2-13.9-7.6-13.2l0,0C-0.9,54.3,5.1,67,7.7,66.4L7.7,66.4z"/>
			<g>
				<path class="st0" d="M15.7,64.2l-0.3-0.1c-1,2.6-2.7,4-4.4,4l0,0c-1.6,0-3.3-1.2-4.6-3.8l0,0l0,0l-0.2,0.1
					c1.4,2.7,3.1,3.9,4.9,3.9l0,0C12.9,68.4,14.6,66.9,15.7,64.2L15.7,64.2z"/>
			</g>
		</g>
		<g>
			<path class="st0" d="M14.4,55.6c-1-2.4,10.1-11.4,11.2-10.4l0,0C26.2,46.7,16.7,57,14.4,55.6L14.4,55.6z"/>
			<path class="st0" d="M7.6,54.5c2-1.6-3.2-14.9-4.7-14.5l0,0C1.7,40.9,4.9,54.6,7.6,54.5L7.6,54.5z"/>
			<g>
				<path class="st0" d="M15.8,54l-0.2-0.2c-1.4,2-3,3-4.5,3l0,0c-1.8,0-3.5-1.5-4.4-4.7l0,0l-0.3,0.1c0.9,3.3,2.7,4.9,4.7,4.9l0,0
					C12.8,57.2,14.5,56.1,15.8,54L15.8,54z"/>
			</g>
		</g>
		<g>
			<path class="st0" d="M15.8,45.3c-0.4-2.6,12.2-9.1,13.1-7.8l0,0C29.2,39,17.8,47.2,15.8,45.3L15.8,45.3z"/>
			<path class="st0" d="M9.4,42.8c2.3-1.2-0.1-15.2-1.6-15.2l0,0C6.4,28.3,6.8,42.3,9.4,42.8L9.4,42.8z"/>
			<g>
				<path class="st0" d="M13.1,46.3c1.4,0,3-0.7,4.5-2.2l0,0l-0.2-0.2c-1.5,1.4-3,2.1-4.3,2.1l0,0c-2.1,0-3.8-1.8-4-5.6l0,0l0,0H8.8
					C9,44.2,10.8,46.3,13.1,46.3L13.1,46.3L13.1,46.3L13.1,46.3z"/>
			</g>
		</g>
		<path class="st0" d="M19.6,35.7c0.1-2.6,13.8-6.4,14.4-4.9l0,0C34,32.3,21.1,37.9,19.6,35.7L19.6,35.7z"/>
		<path class="st0" d="M13.9,31.9c2.5-0.7,3.1-14.9,1.6-15.2l0,0C14,17.1,11.4,30.9,13.9,31.9L13.9,31.9z"/>
		<g>
			<path class="st0" d="M17.7,36.1L17.7,36.1L17.7,36.1c-1.2,0-2.2-0.4-2.9-1.3l0,0c-0.7-0.9-1.1-2.1-1.1-3.7l0,0
				c0-0.5,0-1.1,0.1-1.7h0.3l0,0C14,30,14,30.6,14,31.1l0,0c0,3.1,1.5,4.7,3.8,4.7l0,0c1.1,0,2.4-0.4,3.8-1.3l0.2,0.2l0,0
				C20.2,35.7,18.9,36.1,17.7,36.1L17.7,36.1z M14.1,29.4L14.1,29.4L14.1,29.4L14.1,29.4L14.1,29.4L14.1,29.4z"/>
		</g>
		<path class="st0" d="M25,27.1c0.6-2.5,14.9-3.3,15.1-1.8l0,0C39.9,26.8,26.1,29.6,25,27.1L25,27.1z"/>
		<path class="st0" d="M20.3,22.2c2.6-0.1,6.1-13.9,4.7-14.5l0,0C23.4,7.7,18,20.7,20.3,22.2L20.3,22.2z"/>
		<g>
			<path class="st0" d="M24.2,27.3c0.9,0,1.9-0.2,3-0.6l0,0l-0.1-0.3c-1,0.4-2,0.6-2.9,0.6l0,0c-2.4,0-3.9-1.4-4-3.9l0,0
				c0-0.9,0.2-2,0.7-3.2l0,0l-0.3-0.1C20.2,21,20,22.1,20,23l0,0c0,1.3,0.4,2.4,1.2,3.1l0,0C21.9,26.9,22.9,27.3,24.2,27.3
				L24.2,27.3L24.2,27.3L24.2,27.3z"/>
		</g>
		<path class="st0" d="M32.7,20c1.1-2.3,15.2-0.2,15.2,1.3l0,0C47.3,22.8,33.2,22.6,32.7,20L32.7,20z"/>
		<path class="st0" d="M29.1,14.2C31.6,14.6,38,1.8,36.7,1l0,0C35.1,0.7,27.2,12.3,29.1,14.2L29.1,14.2z"/>
		<path class="st0" d="M34.9,14.1c1.9,1.7,14.2-5.6,13.6-7l0,0C47.3,6.1,34.4,11.5,34.9,14.1L34.9,14.1z"/>
		<g>
			<path class="st0" d="M34.9,20v-0.3c-0.5,0.1-1,0.1-1.4,0.1l0,0c-2.9,0-4.7-1.4-4.7-3.7l0,0c0-1.2,0.4-2.5,1.4-4.1l0,0L30,11.9
				c-1,1.6-1.5,3-1.5,4.2l0,0c0,1.2,0.5,2.3,1.3,2.9l0,0c0.9,0.7,2.1,1.1,3.6,1.1l0,0C33.9,20.1,34.4,20.1,34.9,20L34.9,20z"/>
		</g>
	</g>
</g>
<g>
	<path class="st1" d="M37.7,43.7c4.8,0,8.1-0.2,9.9-0.7c1.8-0.5,3.4-1.4,4.9-2.7h0.8v35.4c0,1.2,0.1,1.9,0.2,2.2
		c0.1,0.2,0.4,0.3,0.8,0.5c0.5,0.2,1.3,0.3,2.5,0.5c1.2,0.1,2.5,0.2,3.9,0.2v0.5h-23v-0.5c1.7,0,3.2-0.1,4.5-0.2s2.1-0.3,2.6-0.5
		s0.8-0.4,0.9-0.7c0.1-0.3,0.2-1,0.2-2.1v-28c0-1.1-0.1-1.8-0.3-2.1S45,45,44.5,44.8s-1.2-0.3-2.2-0.4c-1-0.1-2.5-0.1-4.6-0.1
		C37.7,44.3,37.7,43.7,37.7,43.7z"/>
	<path class="st1" d="M75.7,80.1c-3.3,0-6.2-1.8-8.7-5.4c-2.7-3.9-4-8.7-4-14.6s1.3-10.7,4-14.5c2.5-3.6,5.4-5.4,8.8-5.4
		s6.3,1.8,8.8,5.4c2.7,3.9,4,8.7,4,14.6s-1.3,10.7-3.9,14.4C82,78.3,79,80.1,75.7,80.1z M75.7,79.6c1.6,0,2.8-1.6,3.6-4.9
		c0.8-3.2,1.2-8.1,1.2-14.6c0-6.2-0.1-10.1-0.2-11.6c-0.4-5.2-1.9-7.8-4.6-7.8c-1.6,0-2.8,1.6-3.6,4.8c-0.8,3.2-1.2,8.1-1.2,14.5
		c0,6.3,0.1,10.2,0.2,11.7C71.5,77,73,79.6,75.7,79.6z"/>
</g>
</svg>
