<?xml version="1.0" encoding="utf-8"?>
<!-- Generator: Adobe Illustrator 21.0.2, SVG Export Plug-In . SVG Version: 6.00 Build 0)  -->
<svg version="1.1" id="Capa_1" xmlns="http://www.w3.org/2000/svg" xmlns:xlink="http://www.w3.org/1999/xlink" x="0px" y="0px"
	 viewBox="0 0 832.6 832.6" style="enable-background:new 0 0 832.6 832.6;" xml:space="preserve">
<style type="text/css">
	.st0{fill:#5B8AB8;}
	.st1{fill:#B6B6B6;}
</style>
<path class="st0" d="M23,443.7l402.3,24.5c1.9,0.1,4.1,0.1,6,0c26.7-1.6,47.1-24.4,46-51c-1.1-27.5-25.5-48.5-52.9-46.9L23,394.9
	C-7.7,396.8-7.7,441.9,23,443.7z"/>
<circle class="st0" cx="346.8" cy="54" r="49.5"/>
<path class="st1" d="M444.4,87.9c81,4.9,156.4,38.8,214.2,96.6c62.7,62.7,97.2,146.1,97.2,234.8c0,88-35,172.5-97.3,234.8
	c-62.7,62.7-146.1,97.2-234.8,97.2c-73.8,0-143.7-23.7-202.1-68.6c-51.1-39.3-90.1-93.3-111.3-153.7c-3.8-10.9-15.5-17-26.6-13.9
	L52,524c-12.2,3.4-18.9,16.4-14.8,28.3C49,586.5,65.3,619,85.8,649.2c24.5,36,54.5,67.7,89.1,94.3c34.9,26.9,73.7,47.7,115.2,62.1
	C333,820.4,378,828,423.8,828c55.2,0,108.7-10.8,159.1-32.1c48.7-20.6,92.4-50.1,129.9-87.6s67-81.2,87.6-129.9
	c21.3-50.4,32.1-103.9,32.1-159.1s-10.8-108.7-32.1-159.1c-13.3-31.4-30.3-60.8-50.8-87.7l45.5-45.5c8.6-8.6,8.6-22.4,0-31
	l-46.5-46.5c-8.6-8.6-22.4-8.6-31,0l-45.3,45.3c-27.4-21.1-57.3-38.5-89.4-52.1c-43.4-18.3-89.1-28.9-136.1-31.5
	c-12.5-0.7-23,9.4-23,21.9V66C423.8,77.6,432.8,87.2,444.4,87.9z"/>
</svg>
