<svg id="SvgjsSvg1014" xmlns="http://www.w3.org/2000/svg" version="1.1" xmlns:xlink="http://www.w3.org/1999/xlink" xmlns:svgjs="http://svgjs.com/svgjs" width="16" height="22" viewBox="0 0 16 22"><title>Forma 1</title><desc>Created with Avocode.</desc><defs id="SvgjsDefs1015"></defs><path id="SvgjsPath1016" d="M1419.86 81.3004L1417.4799999999998 78.4106C1417.2799999999997 78.1708 1416.86 77.9792 1416.5499999999997 77.98310000000001L1415.5399999999997 78.00250000000001C1414.6799999999998 78.48800000000001 1412.9899999999998 79.20370000000001 1410.6599999999996 75.24530000000001C1408.3299999999997 71.28750000000001 1409.7999999999997 70.21420000000002 1410.6599999999996 69.72780000000002L1411.1799999999996 68.88450000000002C1411.3399999999997 68.61970000000002 1411.3799999999997 68.16770000000001 1411.2699999999995 67.87930000000001L1409.9099999999996 64.41520000000001C1409.7899999999997 64.12610000000001 1409.4499999999996 63.936700000000016 1409.1399999999996 63.99270000000001L1407.4599999999996 64.29350000000001C1404.2099999999996 66.1311 1404.1899999999996 71.6312 1407.3999999999996 77.08670000000001C1410.6199999999997 82.54260000000001 1415.4999999999995 85.27120000000001 1418.7399999999996 83.43400000000001L1419.8499999999995 82.16270000000002C1420.0499999999995 81.92920000000001 1420.0599999999995 81.53970000000001 1419.8599999999994 81.30040000000001ZM1414.48 68.2726C1417.7 69.1184 1419.6200000000001 72.3718 1418.76 75.5275C1418.7 75.753 1418.83 75.9847 1419.06 76.0458C1419.3 76.1058 1419.53 75.9724 1419.59 75.74549999999999C1420.58 72.13999999999999 1418.3899999999999 68.42259999999999 1414.7099999999998 67.4558C1414.4799999999998 67.3954 1414.2399999999998 67.5283 1414.1799999999998 67.7539C1414.12 67.9805 1414.2499999999998 68.2122 1414.4799999999998 68.2726ZM1414.04 69.9081C1416.34 70.5098 1417.71 72.8354 1417.09 75.0883C1417.03 75.31450000000001 1417.1599999999999 75.5462 1417.3999999999999 75.6066C1417.6299999999999 75.6672 1417.86 75.5332 1417.9199999999998 75.3065C1418.6599999999999 72.6026 1417.0199999999998 69.8144 1414.2599999999998 69.0895C1414.0299999999997 69.0284 1413.7899999999997 69.1632 1413.7299999999998 69.3887C1413.6699999999998 69.6158 1413.8099999999997 69.8477 1414.0399999999997 69.9081ZM1413.59 71.5419C1414.97 71.9037 1415.79 73.2991 1415.4199999999998 74.64999999999999C1415.36 74.87679999999999 1415.4999999999998 75.1086 1415.7299999999998 75.16829999999999C1415.9599999999998 75.22889999999998 1416.1899999999998 75.09599999999999 1416.2599999999998 74.86819999999999C1416.7499999999998 73.06669999999998 1415.6499999999999 71.20679999999999 1413.8099999999997 70.72439999999999C1413.5799999999997 70.66329999999999 1413.3399999999997 70.79799999999999 1413.2799999999997 71.02289999999999C1413.2199999999998 71.2495 1413.3599999999997 71.4819 1413.5899999999997 71.5419ZM1413.14 73.1767C1413.6000000000001 73.29729999999999 1413.88 73.76299999999999 1413.75 74.21249999999999C1413.69 74.43959999999998 1413.83 74.67049999999999 1414.06 74.73039999999999C1414.29 74.7931 1414.53 74.65809999999999 1414.59 74.43229999999998C1414.83 73.53189999999998 1414.29 72.60189999999999 1413.37 72.36049999999999C1413.1299999999999 72.30009999999999 1412.8999999999999 72.43239999999999 1412.84 72.65899999999999C1412.77 72.88279999999999 1412.9099999999999 73.11569999999999 1413.1399999999999 73.1767Z " fill="#ffffff" fill-opacity="1" transform="matrix(1,0,0,1,-1405,-63)"></path></svg>