<svg id="SvgjsSvg1011" xmlns="http://www.w3.org/2000/svg" version="1.1" xmlns:xlink="http://www.w3.org/1999/xlink" xmlns:svgjs="http://svgjs.com/svgjs" width="20" height="20" viewBox="0 0 20 20"><title>Shape 5</title><desc>Created with Avocode.</desc><defs id="SvgjsDefs1012"></defs><path id="SvgjsPath1013" d="M1430 3151L1430 3171L1450 3171L1450 3151ZM1449 3170L1431 3170L1431 3152L1449 3152ZM1437.33 3168.91L1445.1699999999998 3161L1437.33 3153.09C1437.1399999999999 3152.9 1436.83 3152.9 1436.6299999999999 3153.09C1436.4399999999998 3153.29 1436.4399999999998 3153.6000000000004 1436.6299999999999 3153.8L1443.77 3161L1436.6299999999999 3168.2C1436.4399999999998 3168.3999999999996 1436.4399999999998 3168.71 1436.6299999999999 3168.91C1436.7299999999998 3169.0099999999998 1436.86 3169.06 1436.9799999999998 3169.06C1437.11 3169.06 1437.2399999999998 3169.0099999999998 1437.3299999999997 3168.91Z " fill="#b6b6b6" fill-opacity="1" transform="matrix(1,0,0,1,-1430,-3151)"></path></svg>