<svg id="SvgjsSvg1008" xmlns="http://www.w3.org/2000/svg" version="1.1" xmlns:xlink="http://www.w3.org/1999/xlink" xmlns:svgjs="http://svgjs.com/svgjs" width="20" height="20" viewBox="0 0 20 20"><title>Shape 5</title><desc>Created with Avocode.</desc><defs id="SvgjsDefs1009"></defs><path id="SvgjsPath1010" d="M1426 3151L1426 3171L1406 3171L1406 3151ZM1407 3170L1425 3170L1425 3152L1407 3152ZM1418.67 3168.91L1410.8300000000002 3161L1418.67 3153.09C1418.8600000000001 3152.9 1419.17 3152.9 1419.3700000000001 3153.09C1419.5600000000002 3153.29 1419.5600000000002 3153.6000000000004 1419.3700000000001 3153.8L1412.23 3161L1419.3700000000001 3168.2C1419.5600000000002 3168.3999999999996 1419.5600000000002 3168.71 1419.3700000000001 3168.91C1419.2700000000002 3169.0099999999998 1419.14 3169.06 1419.0200000000002 3169.06C1418.89 3169.06 1418.7600000000002 3169.0099999999998 1418.6700000000003 3168.91Z " fill="#0d67b3" fill-opacity="1" transform="matrix(1,0,0,1,-1406,-3151)"></path></svg>